<svg version="1.1" id="Layer_1" xmlns="http://www.w3.org/2000/svg" xmlns:xlink="http://www.w3.org/1999/xlink" x="0px" y="0px"
	 width="100%" viewBox="0 0 500 500" enable-background="new 0 0 500 500" xml:space="preserve">
<path fill="#FFFAFA" opacity="1.000000" stroke="none" 
	d="
M235.000000,501.000000 
	C156.666687,501.000000 78.833374,501.000000 1.000042,501.000000 
	C1.000028,334.333405 1.000028,167.666779 1.000014,1.000131 
	C167.666565,1.000087 334.333130,1.000087 500.999756,1.000044 
	C500.999847,167.666519 500.999847,334.333038 500.999939,500.999786 
	C412.500000,501.000000 324.000000,501.000000 235.000000,501.000000 
M401.445740,313.916046 
	C401.416290,313.713593 401.386841,313.511108 401.357361,313.308655 
	C401.170441,313.474640 400.983490,313.640625 400.383240,314.027435 
	C400.414062,314.269928 400.444885,314.512421 400.475708,314.754913 
	C400.688904,314.546051 400.902069,314.337158 401.445740,313.916046 
M382.183258,313.881714 
	C381.359619,314.434174 380.535980,314.986633 379.121399,315.935455 
	C381.265381,316.495697 382.641449,316.855286 383.895630,317.182983 
	C383.591248,315.980927 383.352905,315.039734 383.417023,313.895599 
	C383.221924,313.868286 383.026855,313.840942 382.183258,313.881714 
M406.260406,313.985352 
	C405.791992,314.606842 405.323547,315.228333 404.855133,315.849823 
	C406.818298,316.373871 408.781464,316.897919 410.744598,317.421936 
	C410.741394,317.192871 410.738190,316.963776 410.734985,316.734680 
	C409.587250,315.950256 408.439514,315.165833 407.821777,314.251587 
	C408.458618,314.198334 409.095428,314.145081 409.732269,314.091827 
	C409.665680,313.750366 409.599091,313.408875 409.532501,313.067413 
	C408.649689,313.330170 407.766846,313.592926 406.260406,313.985352 
M316.829620,318.797058 
	C318.786804,317.816376 320.743988,316.835693 323.008789,315.700897 
	C322.253662,314.491455 321.591736,313.431305 321.461548,313.222809 
	C316.785492,313.743866 312.795135,314.188507 308.804749,314.633179 
	C308.716888,314.206818 308.629028,313.780487 308.541168,313.354156 
	C307.542816,314.411926 306.544434,315.469727 305.655884,316.411133 
	C307.408386,319.376740 309.249664,319.261627 311.723511,317.254883 
	C312.999939,316.219452 315.801636,313.829956 315.083710,318.815735 
	C314.504364,319.560242 313.924988,320.304718 313.345642,321.049225 
	C313.629150,321.279602 313.912659,321.509949 314.196167,321.740326 
	C314.885010,320.908752 315.573883,320.077179 316.829620,318.797058 
M392.732422,297.132202 
	C393.300140,296.490265 394.488983,295.580444 394.344574,295.245667 
	C390.852661,287.149597 387.317230,279.068268 383.553528,271.095764 
	C382.319458,268.481537 378.294128,268.253082 377.109589,270.748962 
	C373.094238,279.209351 369.390167,287.817444 365.567139,296.369110 
	C365.877838,296.710907 366.188507,297.052704 366.499207,297.394531 
	C368.047607,296.853027 370.751434,296.590363 370.960144,295.725586 
	C372.520386,289.259857 377.488922,291.119263 381.715149,290.719360 
	C385.847687,290.328247 388.486847,291.499603 389.003510,296.695770 
	C388.165894,297.836304 387.563141,299.370056 386.443665,300.038635 
	C383.803802,301.615173 382.422424,303.268219 385.392029,307.458191 
	C387.831604,303.776215 389.936127,300.599976 392.732422,297.132202 
M252.017380,273.916626 
	C254.460358,273.916626 256.903351,273.916626 259.694397,273.916626 
	C259.694397,281.912079 259.694397,289.210175 259.694397,296.688049 
	C261.589142,296.688049 263.126160,296.688049 265.182800,296.688049 
	C265.182800,288.954346 265.182800,281.541473 265.182800,274.075439 
	C268.322205,273.927063 270.942719,273.803192 273.515717,273.681580 
	C274.709167,270.485596 273.955750,269.131073 270.600891,269.187469 
	C264.109314,269.296631 257.613678,269.166748 251.073517,268.182770 
	C251.042206,248.689407 251.260208,229.191330 250.891891,209.704346 
	C250.646667,196.730011 246.188522,185.308960 236.124619,176.501648 
	C227.456299,168.915665 217.154022,165.416748 205.909698,165.170380 
	C188.756393,164.794556 171.589798,165.015747 154.428864,165.023560 
	C153.343445,165.024063 152.258194,165.370712 150.677490,165.641052 
	C150.677490,179.461792 150.677490,193.030762 150.677490,206.560852 
	C145.856522,206.560852 141.596893,206.560852 136.744370,206.560852 
	C136.744370,204.448975 136.744370,202.664017 136.744370,200.879059 
	C136.744370,180.218964 136.947128,159.555527 136.604813,138.901108 
	C136.516922,133.597855 138.225327,132.595154 143.093338,132.661270 
	C162.583542,132.925949 182.079987,132.831955 201.572296,132.661850 
	C203.258423,132.647141 206.279861,131.241226 206.381989,130.245682 
	C206.884384,125.348900 206.610199,120.372459 206.610199,115.374603 
	C176.422668,115.374603 146.873138,115.374603 117.240341,115.374603 
	C117.240341,184.318268 117.240341,252.883301 117.240341,322.106964 
	C128.565979,322.106964 139.613174,322.106964 151.127640,322.106964 
	C151.127640,339.010651 151.127640,355.260559 151.127640,372.003632 
	C161.565948,372.003632 171.524414,372.137329 181.477646,371.966644 
	C191.781189,371.789948 202.213211,372.241791 212.351685,370.776550 
	C231.556213,368.000977 244.961395,357.202698 249.393616,337.900574 
	C251.371628,329.286407 250.632111,320.048248 252.036942,311.020111 
	C263.237732,311.020111 274.438538,311.020111 285.639343,311.020111 
	C285.640656,310.537598 285.641968,310.055115 285.643311,309.572601 
	C274.137573,309.572601 262.631866,309.572601 251.109085,308.757263 
	C250.433792,307.847809 249.786835,306.175690 249.078720,306.149384 
	C243.316727,305.935211 237.543304,306.028931 231.136398,306.028931 
	C231.136398,313.782135 231.343292,320.915863 231.094360,328.033691 
	C230.534775,344.034821 220.329987,353.973297 204.320145,354.197174 
	C194.656677,354.332336 184.989777,354.243958 175.324600,354.209137 
	C173.909790,354.204071 172.495926,353.937988 171.170395,353.801758 
	C171.170395,342.992523 171.170395,332.743073 171.170395,321.962830 
	C183.093430,321.962830 194.676773,321.962830 206.433533,321.962830 
	C206.433533,316.386139 206.433533,311.351532 206.433533,305.302063 
	C183.149826,305.302063 160.274948,305.302063 137.958374,305.302063 
	C137.238892,304.002014 136.946854,303.720306 136.945999,303.437775 
	C136.869064,277.947693 136.786774,252.457458 136.867172,226.967743 
	C136.870163,226.020889 138.412094,224.342209 139.342316,224.264313 
	C143.079132,223.951462 146.857468,224.134903 151.073685,224.134903 
	C151.073685,242.291855 151.073685,259.721924 151.073685,277.776764 
	C156.480743,277.776764 161.438187,277.600494 166.376083,277.835327 
	C169.999741,278.007690 170.919235,276.468231 170.873322,273.110565 
	C170.722916,262.114136 170.817093,251.114380 170.817215,240.115906 
	C170.817276,234.995117 170.817230,229.874329 170.817230,223.985840 
	C181.067184,223.985840 190.760590,223.985840 200.481873,223.985840 
	C200.481873,217.951355 200.481873,212.698669 200.481873,206.866180 
	C190.588211,206.866180 181.009171,206.866180 171.172348,206.866180 
	C171.172348,198.403259 171.172348,190.529099 171.172348,182.832428 
	C183.460678,182.832428 195.458679,182.032242 207.304352,183.033783 
	C222.312805,184.302719 230.424377,193.805008 231.045731,208.914841 
	C231.319427,215.570663 231.185165,222.243057 231.248184,228.907806 
	C231.378845,242.726929 231.517563,256.545959 231.113968,270.822327 
	C225.518921,276.759918 226.823746,282.238708 234.444382,284.656036 
	C236.337631,285.256561 238.471924,285.350372 240.153473,286.289398 
	C241.646088,287.122955 242.664261,288.806122 243.891861,290.114258 
	C242.309723,291.077820 240.697220,292.888672 239.151611,292.833252 
	C235.647324,292.707642 232.175980,291.662872 228.608704,290.975952 
	C226.565857,293.374329 227.355133,295.217957 230.269226,295.899658 
	C233.456970,296.645386 236.786789,297.363251 240.016388,297.221405 
	C245.540085,296.978790 248.772156,293.982361 249.064423,289.772369 
	C249.443512,284.311676 245.550583,282.960846 241.442413,281.535889 
	C238.596558,280.548737 235.945847,278.998962 234.241867,277.736267 
	C238.688232,277.749329 243.142181,277.609222 247.578323,277.828735 
	C250.588409,277.977692 251.316635,276.528442 252.017380,273.916626 
M215.481400,273.842651 
	C218.039261,272.813660 223.327713,276.565704 222.939926,269.565125 
	C216.192551,269.565125 209.790527,269.565125 203.244934,269.565125 
	C203.244934,278.789764 203.244934,287.693665 203.244934,296.774658 
	C210.121902,296.774658 216.708878,296.774658 223.289307,296.774658 
	C224.369614,293.884888 223.782913,292.491547 220.623642,292.584442 
	C216.552994,292.704132 212.476181,292.613617 208.395538,292.613617 
	C208.395538,289.666656 208.395538,287.593292 208.395538,285.066742 
	C212.011719,285.066742 215.319885,285.206238 218.603210,284.981964 
	C219.591782,284.914459 220.511261,283.835419 221.462387,283.219757 
	C220.496613,282.450317 219.578568,281.101715 218.556290,281.017456 
	C215.157623,280.737274 211.721497,280.911469 208.356018,280.911469 
	C208.356018,278.155609 208.356018,276.224548 208.356018,273.842529 
	C210.605591,273.842529 212.569138,273.842529 215.481400,273.842651 
M297.996918,270.651123 
	C297.562195,270.217102 297.132568,269.411194 296.692017,269.405212 
	C290.598328,269.322235 284.503174,269.349091 278.202148,269.349091 
	C278.202148,278.743774 278.202148,287.627502 278.202148,297.012573 
	C284.369720,297.012573 290.311218,297.161652 296.231384,296.872711 
	C297.275513,296.821747 298.230316,294.940247 299.226379,293.904053 
	C298.899780,293.433167 298.573151,292.962250 298.246552,292.491364 
	C293.345337,292.491364 288.444122,292.491364 283.484924,292.491364 
	C283.484924,289.738007 283.484924,287.546448 283.484924,284.895050 
	C287.975403,284.895050 292.052917,284.895050 296.409088,284.895050 
	C296.294098,283.470886 296.318726,281.738342 296.128082,281.714355 
	C291.951660,281.188141 287.751343,280.851624 283.406250,280.465485 
	C283.406250,278.269745 283.406250,276.234375 283.406250,273.841095 
	C287.374969,273.841095 291.020721,274.028412 294.627380,273.734985 
	C295.818848,273.638092 296.909424,272.301086 297.996918,270.651123 
M175.243332,295.986694 
	C176.348709,291.850433 178.845078,289.945099 183.252808,290.739807 
	C184.705048,291.001617 186.376266,290.405640 187.711014,290.874634 
	C189.487000,291.498657 191.878723,292.413147 192.503922,293.854401 
	C193.907501,297.090057 195.834457,297.596863 199.276321,296.478333 
	C195.436478,287.951477 191.734299,279.464050 187.776871,271.097351 
	C186.516983,268.433716 182.571503,268.251709 181.344559,270.825287 
	C177.315872,279.275574 173.604538,287.877136 169.442444,297.153503 
	C171.899765,296.926575 173.347626,296.792877 175.243332,295.986694 
M354.351379,269.002350 
	C345.963409,269.293457 340.546509,273.139587 339.047394,279.868591 
	C337.581787,286.447174 340.554199,292.932983 346.370300,295.847076 
	C352.441101,298.888794 359.813049,297.560028 365.059601,291.294037 
	C362.255157,291.294037 360.384247,290.785004 358.989807,291.384460 
	C353.682831,293.665802 348.921661,292.966888 345.936737,289.045258 
	C343.244751,285.508392 343.343231,280.403717 346.168579,277.030426 
	C349.163055,273.455200 354.228821,272.404266 358.806488,275.168823 
	C361.861298,277.013733 362.817200,275.599487 364.563568,272.504089 
	C361.219971,271.266693 358.212769,270.153809 354.351379,269.002350 
M305.586670,273.884338 
	C306.992767,274.001801 308.398834,274.119263 310.094971,274.260956 
	C310.094971,281.999817 310.094971,289.268188 310.094971,296.670685 
	C311.955078,296.670685 313.474487,296.670685 315.351624,296.670685 
	C315.351624,289.056519 315.351624,281.784149 315.351624,274.117737 
	C318.432343,273.967529 321.179901,273.833527 325.459290,273.624847 
	C324.080688,271.603912 323.315979,269.437866 322.468414,269.404968 
	C315.401764,269.130676 308.319855,269.249237 301.501801,269.249237 
	C300.134460,273.226166 301.674042,274.187439 305.586670,273.884338 
M333.433441,294.027283 
	C333.433441,285.918365 333.433441,277.809418 333.433441,269.215942 
	C331.338623,269.369934 329.811768,269.482178 328.303894,269.593018 
	C328.303894,278.920380 328.303894,287.685089 328.303894,297.956787 
	C330.513550,296.640839 331.964996,295.776428 333.433441,294.027283 
M292.722107,264.385468 
	C293.520813,263.693665 294.319489,263.001862 295.118195,262.310028 
	C294.785126,261.779358 294.452026,261.248688 294.118958,260.717987 
	C291.108307,262.394714 288.097656,264.071411 285.087006,265.748108 
	C285.428253,266.418671 285.769531,267.089203 286.110779,267.759766 
	C288.142670,266.781952 290.174561,265.804108 292.722107,264.385468 
M387.824646,316.829376 
	C389.575012,315.968567 391.325378,315.107758 393.086823,314.241516 
	C393.726013,315.112823 394.307373,315.905334 394.888763,316.697845 
	C395.283142,316.356171 395.677551,316.014496 396.071930,315.672821 
	C394.713837,314.226227 393.355743,312.779633 391.997620,311.333008 
	C390.398560,313.079132 388.799469,314.825256 387.824646,316.829376 
M380.948944,309.924133 
	C379.878937,309.404663 378.808899,308.885193 377.738892,308.365723 
	C377.304260,309.580414 376.869629,310.795074 376.085205,312.987274 
	C378.282379,311.599335 379.362366,310.917114 380.948944,309.924133 
M401.325500,316.988617 
	C401.596558,316.762878 401.867615,316.537109 402.138641,316.311340 
	C401.388123,316.307831 400.637604,316.304352 399.887085,316.300873 
	C400.165680,316.529755 400.444275,316.758636 401.325500,316.988617 
M380.624390,305.474915 
	C380.838959,305.529907 381.053528,305.584900 381.268097,305.639862 
	C381.130035,305.503693 380.991974,305.367523 380.624390,305.474915 
M397.520477,315.664825 
	C397.520477,315.664825 397.662384,315.438080 397.662384,315.438080 
	C397.662384,315.438080 397.351715,315.467590 397.520477,315.664825 
z"/>
<path fill="#FF68C4" opacity="1.000000" stroke="none" 
	d="
M251.125946,311.093292 
	C250.632111,320.048248 251.371628,329.286407 249.393616,337.900574 
	C244.961395,357.202698 231.556213,368.000977 212.351685,370.776550 
	C202.213211,372.241791 191.781189,371.789948 181.477646,371.966644 
	C171.524414,372.137329 161.565948,372.003632 151.127640,372.003632 
	C151.127640,355.260559 151.127640,339.010651 151.127640,322.106964 
	C139.613174,322.106964 128.565979,322.106964 117.240341,322.106964 
	C117.240341,252.883301 117.240341,184.318268 117.240341,115.374603 
	C146.873138,115.374603 176.422668,115.374603 206.610199,115.374603 
	C206.610199,120.372459 206.884384,125.348900 206.381989,130.245682 
	C206.279861,131.241226 203.258423,132.647141 201.572296,132.661850 
	C182.079987,132.831955 162.583542,132.925949 143.093338,132.661270 
	C138.225327,132.595154 136.516922,133.597855 136.604813,138.901108 
	C136.947128,159.555527 136.744370,180.218964 136.744370,200.879059 
	C136.744370,202.664017 136.744370,204.448975 136.744370,206.560852 
	C141.596893,206.560852 145.856522,206.560852 150.677490,206.560852 
	C150.677490,193.030762 150.677490,179.461792 150.677490,165.641052 
	C152.258194,165.370712 153.343445,165.024063 154.428864,165.023560 
	C171.589798,165.015747 188.756393,164.794556 205.909698,165.170380 
	C217.154022,165.416748 227.456299,168.915665 236.124619,176.501648 
	C246.188522,185.308960 250.646667,196.730011 250.891891,209.704346 
	C251.260208,229.191330 251.042206,248.689407 251.020432,269.057861 
	C251.017624,271.281830 251.067886,272.630646 251.118164,273.979492 
	C251.316635,276.528442 250.588409,277.977692 247.578323,277.828735 
	C243.142181,277.609222 238.688232,277.749329 233.635208,277.430878 
	C236.207596,269.630035 241.720596,275.057129 246.286972,274.742920 
	C248.383972,272.391479 248.169006,270.264679 244.827286,270.025208 
	C240.466354,269.712677 236.047104,270.213959 231.652954,270.365051 
	C231.517563,256.545959 231.378845,242.726929 231.248184,228.907806 
	C231.185165,222.243057 231.319427,215.570663 231.045731,208.914841 
	C230.424377,193.805008 222.312805,184.302719 207.304352,183.033783 
	C195.458679,182.032242 183.460678,182.832428 171.172348,182.832428 
	C171.172348,190.529099 171.172348,198.403259 171.172348,206.866180 
	C181.009171,206.866180 190.588211,206.866180 200.481873,206.866180 
	C200.481873,212.698669 200.481873,217.951355 200.481873,223.985840 
	C190.760590,223.985840 181.067184,223.985840 170.817230,223.985840 
	C170.817230,229.874329 170.817276,234.995117 170.817215,240.115906 
	C170.817093,251.114380 170.722916,262.114136 170.873322,273.110565 
	C170.919235,276.468231 169.999741,278.007690 166.376083,277.835327 
	C161.438187,277.600494 156.480743,277.776764 151.073685,277.776764 
	C151.073685,259.721924 151.073685,242.291855 151.073685,224.134903 
	C146.857468,224.134903 143.079132,223.951462 139.342316,224.264313 
	C138.412094,224.342209 136.870163,226.020889 136.867172,226.967743 
	C136.786774,252.457458 136.869064,277.947693 136.945999,303.437775 
	C136.946854,303.720306 137.238892,304.002014 137.958374,305.302063 
	C160.274948,305.302063 183.149826,305.302063 206.433533,305.302063 
	C206.433533,311.351532 206.433533,316.386139 206.433533,321.962830 
	C194.676773,321.962830 183.093430,321.962830 171.170395,321.962830 
	C171.170395,332.743073 171.170395,342.992523 171.170395,353.801758 
	C172.495926,353.937988 173.909790,354.204071 175.324600,354.209137 
	C184.989777,354.243958 194.656677,354.332336 204.320145,354.197174 
	C220.329987,353.973297 230.534775,344.034821 231.094360,328.033691 
	C231.343292,320.915863 231.136398,313.782135 231.136398,306.028931 
	C237.543304,306.028931 243.316727,305.935211 249.078720,306.149384 
	C249.786835,306.175690 250.433792,307.847809 251.021057,309.545227 
	C250.997330,310.586548 251.061630,310.839905 251.125946,311.093292 
z"/>
<path fill="#797979" opacity="1.000000" stroke="none" 
	d="
M215.007034,273.842590 
	C212.569138,273.842529 210.605591,273.842529 208.356018,273.842529 
	C208.356018,276.224548 208.356018,278.155609 208.356018,280.911469 
	C211.721497,280.911469 215.157623,280.737274 218.556290,281.017456 
	C219.578568,281.101715 220.496613,282.450317 221.462387,283.219757 
	C220.511261,283.835419 219.591782,284.914459 218.603210,284.981964 
	C215.319885,285.206238 212.011719,285.066742 208.395538,285.066742 
	C208.395538,287.593292 208.395538,289.666656 208.395538,292.613617 
	C212.476181,292.613617 216.552994,292.704132 220.623642,292.584442 
	C223.782913,292.491547 224.369614,293.884888 223.289307,296.774658 
	C216.708878,296.774658 210.121902,296.774658 203.244934,296.774658 
	C203.244934,287.693665 203.244934,278.789764 203.244934,269.565125 
	C209.790527,269.565125 216.192551,269.565125 222.939926,269.565125 
	C223.327713,276.565704 218.039261,272.813660 215.007034,273.842590 
z"/>
<path fill="#797979" opacity="1.000000" stroke="none" 
	d="
M298.021545,271.091125 
	C296.909424,272.301086 295.818848,273.638092 294.627380,273.734985 
	C291.020721,274.028412 287.374969,273.841095 283.406250,273.841095 
	C283.406250,276.234375 283.406250,278.269745 283.406250,280.465485 
	C287.751343,280.851624 291.951660,281.188141 296.128082,281.714355 
	C296.318726,281.738342 296.294098,283.470886 296.409088,284.895050 
	C292.052917,284.895050 287.975403,284.895050 283.484924,284.895050 
	C283.484924,287.546448 283.484924,289.738007 283.484924,292.491364 
	C288.444122,292.491364 293.345337,292.491364 298.246552,292.491364 
	C298.573151,292.962250 298.899780,293.433167 299.226379,293.904053 
	C298.230316,294.940247 297.275513,296.821747 296.231384,296.872711 
	C290.311218,297.161652 284.369720,297.012573 278.202148,297.012573 
	C278.202148,287.627502 278.202148,278.743774 278.202148,269.349091 
	C284.503174,269.349091 290.598328,269.322235 296.692017,269.405212 
	C297.132568,269.411194 297.562195,270.217102 298.021545,271.091125 
z"/>
<path fill="#7B7B7B" opacity="1.000000" stroke="none" 
	d="
M175.019409,296.322937 
	C173.347626,296.792877 171.899765,296.926575 169.442444,297.153503 
	C173.604538,287.877136 177.315872,279.275574 181.344559,270.825287 
	C182.571503,268.251709 186.516983,268.433716 187.776871,271.097351 
	C191.734299,279.464050 195.436478,287.951477 199.276321,296.478333 
	C195.834457,297.596863 193.907501,297.090057 192.503922,293.854401 
	C191.878723,292.413147 189.487000,291.498657 187.711014,290.874634 
	C186.376266,290.405640 184.705048,291.001617 183.252808,290.739807 
	C178.845078,289.945099 176.348709,291.850433 175.019409,296.322937 
M183.662262,286.755798 
	C185.375473,286.755798 187.088669,286.755798 189.713654,286.755798 
	C187.781357,282.316071 186.282318,278.871796 184.438278,274.634857 
	C182.899185,278.217285 181.817703,280.959473 180.552979,283.614349 
	C179.316208,286.210571 180.460464,286.871490 183.662262,286.755798 
z"/>
<path fill="#7B7B7B" opacity="1.000000" stroke="none" 
	d="
M389.042450,295.901489 
	C388.486847,291.499603 385.847687,290.328247 381.715149,290.719360 
	C377.488922,291.119263 372.520386,289.259857 370.960144,295.725586 
	C370.751434,296.590363 368.047607,296.853027 366.499207,297.394531 
	C366.188507,297.052704 365.877838,296.710907 365.567139,296.369110 
	C369.390167,287.817444 373.094238,279.209351 377.109589,270.748962 
	C378.294128,268.253082 382.319458,268.481537 383.553528,271.095764 
	C387.317230,279.068268 390.852661,287.149597 394.344574,295.245667 
	C394.488983,295.580444 393.300140,296.490265 392.040466,297.239899 
	C390.579834,296.865570 389.811127,296.383514 389.042450,295.901489 
M382.919861,280.686646 
	C382.130157,278.969330 381.340454,277.252014 380.155701,274.675629 
	C378.295288,279.028320 376.782043,282.568695 375.152771,286.380554 
	C378.746399,286.380554 381.728119,286.380554 385.203979,286.380554 
	C384.390503,284.382690 383.782196,282.888672 382.919861,280.686646 
z"/>
<path fill="#7A7879" opacity="1.000000" stroke="none" 
	d="
M231.383453,270.593689 
	C236.047104,270.213959 240.466354,269.712677 244.827286,270.025208 
	C248.169006,270.264679 248.383972,272.391479 246.286972,274.742920 
	C241.720596,275.057129 236.207596,269.630035 233.118256,277.413025 
	C235.945847,278.998962 238.596558,280.548737 241.442413,281.535889 
	C245.550583,282.960846 249.443512,284.311676 249.064423,289.772369 
	C248.772156,293.982361 245.540085,296.978790 240.016388,297.221405 
	C236.786789,297.363251 233.456970,296.645386 230.269226,295.899658 
	C227.355133,295.217957 226.565857,293.374329 228.608704,290.975952 
	C232.175980,291.662872 235.647324,292.707642 239.151611,292.833252 
	C240.697220,292.888672 242.309723,291.077820 243.891861,290.114258 
	C242.664261,288.806122 241.646088,287.122955 240.153473,286.289398 
	C238.471924,285.350372 236.337631,285.256561 234.444382,284.656036 
	C226.823746,282.238708 225.518921,276.759918 231.383453,270.593689 
z"/>
<path fill="#7A7A7A" opacity="1.000000" stroke="none" 
	d="
M354.778473,269.021606 
	C358.212769,270.153809 361.219971,271.266693 364.563568,272.504089 
	C362.817200,275.599487 361.861298,277.013733 358.806488,275.168823 
	C354.228821,272.404266 349.163055,273.455200 346.168579,277.030426 
	C343.343231,280.403717 343.244751,285.508392 345.936737,289.045258 
	C348.921661,292.966888 353.682831,293.665802 358.989807,291.384460 
	C360.384247,290.785004 362.255157,291.294037 365.059601,291.294037 
	C359.813049,297.560028 352.441101,298.888794 346.370300,295.847076 
	C340.554199,292.932983 337.581787,286.447174 339.047394,279.868591 
	C340.546509,273.139587 345.963409,269.293457 354.778473,269.021606 
z"/>
<path fill="#7C7C7C" opacity="1.000000" stroke="none" 
	d="
M305.129730,273.883972 
	C301.674042,274.187439 300.134460,273.226166 301.501801,269.249237 
	C308.319855,269.249237 315.401764,269.130676 322.468414,269.404968 
	C323.315979,269.437866 324.080688,271.603912 325.459290,273.624847 
	C321.179901,273.833527 318.432343,273.967529 315.351624,274.117737 
	C315.351624,281.784149 315.351624,289.056519 315.351624,296.670685 
	C313.474487,296.670685 311.955078,296.670685 310.094971,296.670685 
	C310.094971,289.268188 310.094971,281.999817 310.094971,274.260956 
	C308.398834,274.119263 306.992767,274.001801 305.129730,273.883972 
z"/>
<path fill="#7C7C7C" opacity="1.000000" stroke="none" 
	d="
M251.567780,273.948059 
	C251.067886,272.630646 251.017624,271.281830 251.043518,269.534485 
	C257.613678,269.166748 264.109314,269.296631 270.600891,269.187469 
	C273.955750,269.131073 274.709167,270.485596 273.515717,273.681580 
	C270.942719,273.803192 268.322205,273.927063 265.182800,274.075439 
	C265.182800,281.541473 265.182800,288.954346 265.182800,296.688049 
	C263.126160,296.688049 261.589142,296.688049 259.694397,296.688049 
	C259.694397,289.210175 259.694397,281.912079 259.694397,273.916626 
	C256.903351,273.916626 254.460358,273.916626 251.567780,273.948059 
z"/>
<path fill="#7A7A7A" opacity="1.000000" stroke="none" 
	d="
M333.424957,294.469666 
	C331.964996,295.776428 330.513550,296.640839 328.303894,297.956787 
	C328.303894,287.685089 328.303894,278.920380 328.303894,269.593018 
	C329.811768,269.482178 331.338623,269.369934 333.433441,269.215942 
	C333.433441,277.809418 333.433441,285.918365 333.424957,294.469666 
z"/>
<path fill="#C4C1C1" opacity="1.000000" stroke="none" 
	d="
M315.630981,318.562866 
	C315.801636,313.829956 312.999939,316.219452 311.723511,317.254883 
	C309.249664,319.261627 307.408386,319.376740 305.655884,316.411133 
	C306.544434,315.469727 307.542816,314.411926 308.541168,313.354156 
	C308.629028,313.780487 308.716888,314.206818 308.804749,314.633179 
	C312.795135,314.188507 316.785492,313.743866 321.461548,313.222809 
	C321.591736,313.431305 322.253662,314.491455 323.008789,315.700897 
	C320.743988,316.835693 318.786804,317.816376 316.385437,318.853241 
	C315.941223,318.909424 315.630981,318.562866 315.630981,318.562866 
z"/>
<path fill="#F5F0F0" opacity="1.000000" stroke="none" 
	d="
M389.022980,296.298645 
	C389.811127,296.383514 390.579834,296.865570 391.694580,297.385651 
	C389.936127,300.599976 387.831604,303.776215 385.392029,307.458191 
	C382.422424,303.268219 383.803802,301.615173 386.443665,300.038635 
	C387.563141,299.370056 388.165894,297.836304 389.022980,296.298645 
z"/>
<path fill="#828181" opacity="1.000000" stroke="none" 
	d="
M292.464294,264.605896 
	C290.174561,265.804108 288.142670,266.781952 286.110779,267.759766 
	C285.769531,267.089203 285.428253,266.418671 285.087006,265.748108 
	C288.097656,264.071411 291.108307,262.394714 294.118958,260.717987 
	C294.452026,261.248688 294.785126,261.779358 295.118195,262.310028 
	C294.319489,263.001862 293.520813,263.693665 292.464294,264.605896 
z"/>
<path fill="#434242" opacity="1.000000" stroke="none" 
	d="
M251.581451,311.056702 
	C251.061630,310.839905 250.997330,310.586548 251.029572,309.952881 
	C262.631866,309.572601 274.137573,309.572601 285.643311,309.572601 
	C285.641968,310.055115 285.640656,310.537598 285.639343,311.020111 
	C274.438538,311.020111 263.237732,311.020111 251.581451,311.056702 
z"/>
<path fill="#C7C4C4" opacity="1.000000" stroke="none" 
	d="
M387.512512,316.700378 
	C388.799469,314.825256 390.398560,313.079132 391.997620,311.333008 
	C393.355743,312.779633 394.713837,314.226227 396.071930,315.672821 
	C395.677551,316.014496 395.283142,316.356171 394.888763,316.697845 
	C394.307373,315.905334 393.726013,315.112823 393.086823,314.241516 
	C391.325378,315.107758 389.575012,315.968567 387.512512,316.700378 
z"/>
<path fill="#F5F0F0" opacity="1.000000" stroke="none" 
	d="
M380.695648,310.079529 
	C379.362366,310.917114 378.282379,311.599335 376.085205,312.987274 
	C376.869629,310.795074 377.304260,309.580414 377.738892,308.365723 
	C378.808899,308.885193 379.878937,309.404663 380.695648,310.079529 
z"/>
<path fill="#C4C1C1" opacity="1.000000" stroke="none" 
	d="
M407.291779,314.381409 
	C408.439514,315.165833 409.587250,315.950256 410.734985,316.734680 
	C410.738190,316.963776 410.741394,317.192871 410.744598,317.421936 
	C408.781464,316.897919 406.818298,316.373871 404.855133,315.849823 
	C405.323547,315.228333 405.791992,314.606842 406.676666,314.049988 
	C407.092926,314.114624 407.291779,314.381409 407.291779,314.381409 
z"/>
<path fill="#C7C4C4" opacity="1.000000" stroke="none" 
	d="
M383.114594,314.098541 
	C383.352905,315.039734 383.591248,315.980927 383.895630,317.182983 
	C382.641449,316.855286 381.265381,316.495697 379.121399,315.935455 
	C380.535980,314.986633 381.359619,314.434174 382.576294,313.920837 
	C382.969299,313.959930 383.114594,314.098541 383.114594,314.098541 
z"/>
<path fill="#C4C1C1" opacity="1.000000" stroke="none" 
	d="
M316.101990,319.077515 
	C315.573883,320.077179 314.885010,320.908752 314.196167,321.740326 
	C313.912659,321.509949 313.629150,321.279602 313.345642,321.049225 
	C313.924988,320.304718 314.504364,319.560242 315.357361,318.689301 
	C315.630981,318.562866 315.941223,318.909424 316.101990,319.077515 
z"/>
<path fill="#C4C1C1" opacity="1.000000" stroke="none" 
	d="
M406.988464,313.985168 
	C407.766846,313.592926 408.649689,313.330170 409.532501,313.067413 
	C409.599091,313.408875 409.665680,313.750366 409.732269,314.091827 
	C409.095428,314.145081 408.458618,314.198334 407.556763,314.316498 
	C407.291779,314.381409 407.092926,314.114624 406.988464,313.985168 
z"/>
<path fill="#C4C1C1" opacity="1.000000" stroke="none" 
	d="
M401.024170,316.988068 
	C400.444275,316.758636 400.165680,316.529755 399.887085,316.300873 
	C400.637604,316.304352 401.388123,316.307831 402.138641,316.311340 
	C401.867615,316.537109 401.596558,316.762878 401.024170,316.988068 
z"/>
<path fill="#F5F0F0" opacity="1.000000" stroke="none" 
	d="
M380.739136,305.353119 
	C380.991974,305.367523 381.130035,305.503693 381.268097,305.639862 
	C381.053528,305.584900 380.838959,305.529907 380.739136,305.353119 
z"/>
<path fill="#C7C4C4" opacity="1.000000" stroke="none" 
	d="
M382.900513,313.886780 
	C383.026855,313.840942 383.221924,313.868286 383.265808,313.997070 
	C383.114594,314.098541 382.969299,313.959930 382.900513,313.886780 
z"/>
<path fill="#C4C1C1" opacity="1.000000" stroke="none" 
	d="
M400.796539,313.806580 
	C400.983490,313.640625 401.170441,313.474640 401.357361,313.308655 
	C401.386841,313.511108 401.416290,313.713593 401.201996,313.940582 
	C400.958252,313.965118 400.796539,313.806580 400.796539,313.806580 
z"/>
<path fill="#C4C1C1" opacity="1.000000" stroke="none" 
	d="
M401.036743,314.046692 
	C400.902069,314.337158 400.688904,314.546051 400.475708,314.754913 
	C400.444885,314.512421 400.414062,314.269928 400.589905,313.916992 
	C400.796539,313.806580 400.958252,313.965118 401.036743,314.046692 
z"/>
<path fill="#C4C1C1" opacity="1.000000" stroke="none" 
	d="
M397.436096,315.566223 
	C397.351715,315.467590 397.662384,315.438080 397.662384,315.438080 
	C397.662384,315.438080 397.520477,315.664825 397.436096,315.566223 
z"/>
<path fill="#F2EDED" opacity="1.000000" stroke="none" 
	d="
M183.243530,286.754517 
	C180.460464,286.871490 179.316208,286.210571 180.552979,283.614349 
	C181.817703,280.959473 182.899185,278.217285 184.438278,274.634857 
	C186.282318,278.871796 187.781357,282.316071 189.713654,286.755798 
	C187.088669,286.755798 185.375473,286.755798 183.243530,286.754517 
z"/>
<path fill="#EEE9E9" opacity="1.000000" stroke="none" 
	d="
M383.046875,281.040649 
	C383.782196,282.888672 384.390503,284.382690 385.203979,286.380554 
	C381.728119,286.380554 378.746399,286.380554 375.152771,286.380554 
	C376.782043,282.568695 378.295288,279.028320 380.155701,274.675629 
	C381.340454,277.252014 382.130157,278.969330 383.046875,281.040649 
z"/>
</svg>