<?xml version="1.0" encoding="UTF-8" standalone="no"?>
<svg
   version="1.1"
   id="Layer_1"
   x="0px"
   y="0px"
   width="650"
   viewBox="0 0 650 150"
   enable-background="new 0 0 1234 935"
   xml:space="preserve"
   sodipodi:docname="nutritrac.svg"
   inkscape:version="1.3.2 (091e20e, 2023-11-25, custom)"
   height="150"
   xmlns:inkscape="http://www.inkscape.org/namespaces/inkscape"
   xmlns:sodipodi="http://sodipodi.sourceforge.net/DTD/sodipodi-0.dtd"
   xmlns="http://www.w3.org/2000/svg"
   xmlns:svg="http://www.w3.org/2000/svg"><defs
   id="defs270" /><sodipodi:namedview
   id="namedview270"
   pagecolor="#ffffff"
   bordercolor="#000000"
   borderopacity="0.25"
   inkscape:showpageshadow="2"
   inkscape:pageopacity="0.0"
   inkscape:pagecheckerboard="0"
   inkscape:deskcolor="#d1d1d1"
   inkscape:zoom="0.86951872"
   inkscape:cx="562.9551"
   inkscape:cy="283.49016"
   inkscape:window-width="1920"
   inkscape:window-height="1009"
   inkscape:window-x="-8"
   inkscape:window-y="-8"
   inkscape:window-maximized="1"
   inkscape:current-layer="Layer_1" />














































































































































































































































































<path
   fill="#fffafa"
   opacity="1"
   stroke="none"
   d="m 304.78848,149.39606 c -101.65313,0 -202.65744,0 -303.6617526,0 -1.21e-5,-49.03237 -1.21e-5,-98.064751 -3.64e-5,-147.0971506 216.283189,0 432.566399,0 648.849709,-1e-5 1.2e-4,49.0323296 1.2e-4,98.0646806 2.3e-4,147.0971006 -114.84637,6e-5 -229.69284,6e-5 -345.18815,6e-5 M 520.78515,94.357009 c -0.0381,-0.0596 -0.0764,-0.11913 -0.11469,-0.17869 -0.24257,0.0488 -0.48518,0.0977 -1.26411,0.21146 0.04,0.0713 0.08,0.14268 0.12004,0.21402 0.27665,-0.0614 0.55327,-0.12289 1.25881,-0.24679 m -24.99693,-0.0105 c -1.06884,0.16254 -2.13768,0.32506 -3.97339,0.6042 2.78225,0.16483 4.56798,0.27061 6.19553,0.36702 -0.395,-0.35363 -0.70429,-0.63052 -0.6211,-0.96713 -0.25318,-0.008 -0.50632,-0.0161 -1.60104,-0.004 m 31.24492,0.0305 c -0.60787,0.18283 -1.21577,0.36567 -1.82365,0.54852 2.54763,0.15416 5.09521,0.30833 7.64278,0.46251 -0.004,-0.0674 -0.008,-0.1348 -0.013,-0.2022 -1.48941,-0.23077 -2.97883,-0.46154 -3.78044,-0.73051 0.82642,-0.0157 1.6528,-0.0313 2.47923,-0.047 -0.0864,-0.10045 -0.17282,-0.20092 -0.25924,-0.30139 -1.14562,0.0773 -2.29128,0.15462 -4.24619,0.27006 m -116.05435,1.41518 c 2.53983,-0.28851 5.07969,-0.57703 8.01871,-0.91088 -0.97992,-0.3558 -1.8389,-0.66769 -2.00785,-0.72904 -6.06811,0.1533 -11.2464,0.28411 -16.42474,0.41493 -0.11407,-0.12544 -0.22802,-0.25085 -0.34204,-0.37627 -1.29556,0.31117 -2.59117,0.62237 -3.74425,0.89933 2.27424,0.87247 4.66365,0.83861 7.87397,0.24823 1.65643,-0.30462 5.29219,-1.00759 4.36054,0.45919 -0.75183,0.21903 -1.50368,0.43805 -2.25551,0.65708 0.36793,0.0678 0.73584,0.13555 1.10374,0.20332 0.89392,-0.24464 1.78785,-0.48928 3.41743,-0.86589 m 98.49907,-6.37368 c 0.73673,-0.18885 2.27949,-0.45652 2.09209,-0.555 -4.53145,-2.38183 -9.11938,-4.75931 -14.00353,-7.10477 -1.60145,-0.76909 -6.82512,-0.8363 -8.36231,-0.10209 -5.2107,2.489 -10.01748,5.02146 -14.97864,7.53731 0.40321,0.10056 0.80635,0.20111 1.20957,0.30167 2.00935,-0.15931 5.5181,-0.23658 5.78894,-0.491 2.02473,-1.90218 8.47238,-1.35516 13.95678,-1.47281 5.36278,-0.11501 8.78762,0.22955 9.45809,1.75824 -1.08697,0.33554 -1.86915,0.78676 -3.32191,0.98345 -3.42576,0.4638 -5.21837,0.95013 -1.3647,2.18279 3.16583,-1.08322 5.89687,-2.01764 9.52562,-3.03785 m -182.60545,-6.8291 c 3.17023,0 6.34051,0 9.96246,0 0,2.35221 0,4.49928 0,6.69922 2.4588,0 4.45339,0 7.12229,0 0,-2.27521 0,-4.45604 0,-6.6525 4.074,-0.0437 7.47465,-0.0801 10.81364,-0.11583 1.54874,-0.94025 0.57101,-1.33874 -3.78259,-1.32215 -8.42411,0.0321 -16.8535,-0.006 -25.34066,-0.29557 -0.0407,-5.73484 0.24226,-11.47107 -0.23569,-17.20402 -0.31825,-3.81697 -6.10357,-7.17699 -19.16352,-9.76805 -11.24886,-2.23175 -24.61812,-3.26112 -39.20988,-3.33359 -22.25986,-0.11059 -44.53694,-0.0454 -66.8067,-0.0432 -1.40854,1.5e-4 -2.81687,0.10209 -4.86815,0.18166 0,4.06598 0,8.05791 0,12.03837 -6.25618,0 -11.78389,0 -18.08101,0 0,-0.6213 0,-1.14642 0,-1.67155 0,-6.07808 0.26313,-12.15714 -0.18111,-18.23355 -0.11409,-1.56019 2.10296,-1.85519 8.42018,-1.83572 25.29243,0.0779 50.59296,0.0503 75.88814,1.6e-4 2.18807,-0.005 6.109,-0.41794 6.24154,-0.71082 0.65195,-1.4406 0.29614,-2.90465 0.29614,-4.37499 -39.17435,0 -77.52078,0 -115.97527,0 0,20.28283 0,40.45428 0,60.81948 14.69729,0 29.03322,0 43.97556,0 0,4.972971 0,9.753621 0,14.679321 13.54579,0 26.46889,0.0393 39.38521,-0.0105 13.3709,-0.052 26.90853,0.081 40.06524,-0.35012 24.92171,-0.81656 42.3176,-3.99335 48.06931,-9.67193 2.56685,-2.534241 1.60719,-5.252061 3.43024,-7.908091 14.53525,0 29.07055,0 43.60582,0 0.001,-0.14195 0.004,-0.28389 0.005,-0.42585 -14.931,0 -29.86197,0 -44.81509,-0.23987 -0.87632,-0.26755 -1.71588,-0.75947 -2.63478,-0.76721 -7.47734,-0.0631 -14.96952,-0.0354 -23.28375,-0.0354 0,2.28095 0.26847,4.37965 -0.0545,6.47368 -0.72616,4.707441 -13.96891,7.631281 -34.74489,7.697151 -12.54028,0.0398 -25.08502,0.0137 -37.62753,0.003 -1.83598,-7.4e-4 -3.67075,-0.0797 -5.3909,-0.11985 0,-3.18002 0,-6.195351 0,-9.366821 15.47252,0 30.50422,0 45.76097,0 0,-1.64064 0,-3.1218 0,-4.90152 -30.21525,0 -59.89998,0 -88.86021,0 -0.93368,-0.38246 -1.31264,-0.46534 -1.31376,-0.54846 -0.0999,-7.49903 -0.20663,-14.99812 -0.10232,-22.49705 0.004,-0.27855 2.00485,-0.77241 3.212,-0.79533 4.84926,-0.092 9.75242,-0.0381 15.22379,-0.0381 0,5.34167 0,10.4695 0,15.78113 7.01674,0 13.45002,-0.0518 19.85791,0.0173 4.70244,0.0507 5.89567,-0.4022 5.83608,-1.39001 -0.19517,-3.23508 -0.0729,-6.47114 -0.0728,-9.70684 9e-5,-1.50649 2e-5,-3.01299 2e-5,-4.74535 13.30136,0 25.8805,0 38.49581,0 0,-1.77533 0,-3.32064 0,-5.03652 -12.83901,0 -25.26973,0 -38.03497,0 0,-2.48974 0,-4.80627 0,-7.07059 15.94656,0 31.51638,-0.23542 46.8885,0.0592 19.47646,0.37332 30.00286,3.16884 30.8092,7.61405 0.35517,1.95811 0.18093,3.92111 0.26271,5.88183 0.16956,4.0655 0.34957,8.13098 -0.17416,12.33101 -7.2607,1.74681 -5.56742,3.35864 4.32187,4.06979 2.45686,0.17668 5.22654,0.20427 7.40869,0.48053 1.93697,0.24523 3.25824,0.74041 4.85131,1.12526 -2.05315,0.28347 -4.14568,0.81621 -6.15144,0.79991 -4.54751,-0.0369 -9.05227,-0.34432 -13.68154,-0.54641 -2.65099,0.70559 -1.62674,1.24798 2.15489,1.44853 4.13673,0.21938 8.45784,0.43058 12.64889,0.38884 7.16809,-0.0713 11.36235,-0.95289 11.74163,-2.19146 0.49194,-1.60649 -4.55992,-2.0039 -9.89108,-2.42312 -3.69307,-0.29041 -7.13289,-0.74635 -9.34415,-1.11783 5.77005,0.004 11.54992,-0.0374 17.30671,0.0272 3.90619,0.0438 4.8512,-0.38253 5.76058,-1.15093 m -47.41274,-0.0218 c 3.31931,-0.30272 10.18215,0.80111 9.67892,-1.25842 -8.75608,0 -17.06397,0 -25.55821,0 0,2.71384 0,5.33332 0,8.0049 8.92426,0 17.47217,0 26.0116,0 1.40191,-0.85017 0.64055,-1.26008 -3.45924,-1.23275 -5.28247,0.0352 -10.57296,0.008 -15.86842,0.008 0,-0.86698 0,-1.47696 0,-2.22025 4.69274,0 8.98574,0.041 13.24651,-0.0249 1.28286,-0.0198 2.47608,-0.3373 3.71036,-0.51842 -1.2533,-0.22638 -2.44463,-0.62311 -3.77125,-0.64791 -4.41044,-0.0824 -8.86951,-0.0311 -13.23688,-0.0311 0,-0.81077 0,-1.37887 0,-2.07966 2.91927,0 5.46736,0 9.24661,4e-5 m 107.08038,-0.93892 c -0.56415,-0.1277 -1.12166,-0.3648 -1.69337,-0.36654 -7.90778,-0.0244 -15.81746,-0.0165 -23.99431,-0.0165 0,2.76386 0,5.3774 0,8.13843 8.00365,0 15.71396,0.0438 23.39655,-0.0411 1.35496,-0.0151 2.594,-0.56852 3.8866,-0.87336 -0.42383,-0.13853 -0.84769,-0.27708 -1.27152,-0.41561 -6.36031,0 -12.72062,0 -19.15616,0 0,-0.81002 0,-1.45476 0,-2.2348 5.82728,0 11.11867,0 16.77168,0 -0.14922,-0.41898 -0.11729,-0.92868 -0.36466,-0.93573 -5.41973,-0.15482 -10.87049,-0.25382 -16.50912,-0.36741 0,-0.64598 0,-1.24477 0,-1.94888 5.15021,0 9.88131,0.0551 14.56167,-0.0312 1.54617,-0.0285 2.96139,-0.42184 4.37264,-0.90725 m -159.29737,7.45352 c 1.43446,-1.21687 4.67397,-1.77739 10.3939,-1.5436 1.88457,0.077 4.0533,-0.0984 5.7854,0.0396 2.30471,0.18359 5.40843,0.45262 6.21976,0.87663 1.82143,0.95192 4.32204,1.10101 8.78855,0.77195 -4.98297,-2.50856 -9.78728,-5.00551 -14.92284,-7.46693 -1.63496,-0.78363 -6.75502,-0.83718 -8.3472,-0.0801 -5.22805,2.48603 -10.04423,5.01655 -15.44539,7.74561 3.18886,-0.0668 5.06776,-0.10604 7.52782,-0.34326 m 232.42819,-7.9382 c -10.88508,0.0857 -17.91459,1.21716 -19.85999,3.19679 -1.90192,1.93539 1.95539,3.84348 9.50294,4.70078 7.87808,0.89486 17.44466,0.50395 24.25311,-1.33947 -3.63932,0 -6.06722,-0.14975 -7.87677,0.0265 -6.88686,0.67114 -13.06543,0.46553 -16.93897,-0.68819 -3.4934,-1.04053 -3.36559,-2.54229 0.30086,-3.53469 3.88592,-1.0518 10.45976,-1.36099 16.40021,-0.54767 3.96424,0.54276 5.20471,0.12668 7.47096,-0.78395 -4.33899,-0.36406 -8.24142,-0.69145 -13.25235,-1.0302 m -63.28197,1.43626 c 1.82468,0.0346 3.64935,0.0691 5.85042,0.11081 0,2.27673 0,4.41505 0,6.59282 2.41386,0 4.38559,0 6.82155,0 0,-2.24005 0,-4.37953 0,-6.63494 3.99786,-0.0442 7.56336,-0.0837 13.11671,-0.14502 -1.78898,-0.59454 -2.78136,-1.23179 -3.88125,-1.24147 -9.17038,-0.0806 -18.36057,-0.0458 -27.20837,-0.0458 -1.7744,1.16999 0.2235,1.4528 5.30094,1.36362 m 36.13676,5.92594 c 0,-2.3856 0,-4.7712 0,-7.29936 -2.71845,0.0453 -4.69985,0.0783 -6.65662,0.11095 0,2.74404 0,5.32257 0,8.34446 2.86747,-0.38716 4.75102,-0.64146 6.65662,-1.15605 m -52.83111,-8.72045 c 1.03649,-0.20352 2.07293,-0.40704 3.10941,-0.61057 -0.43222,-0.15613 -0.86448,-0.31224 -1.29671,-0.46837 -3.90692,0.49327 -7.81384,0.98654 -11.72076,1.47981 0.44282,0.19729 0.8857,0.39456 1.32854,0.59184 2.63679,-0.28768 5.27358,-0.57536 8.57952,-0.99271 m 123.41459,15.42872 c 2.27144,-0.25325 4.54289,-0.5065 6.82871,-0.76133 0.82948,0.25633 1.58392,0.48947 2.33839,0.72264 0.51177,-0.10058 1.0236,-0.20104 1.5354,-0.30158 -1.76241,-0.42556 -3.52482,-0.85115 -5.28724,-1.27673 -2.07511,0.51369 -4.15025,1.0274 -5.41526,1.617 m -8.92261,-2.03148 c -1.38855,-0.15284 -2.77714,-0.30565 -4.16569,-0.45849 -0.56402,0.35736 -1.12804,0.71471 -2.14599,1.35965 2.85127,-0.40833 4.25277,-0.60903 6.31168,-0.90116 m 26.44266,2.07833 c 0.35176,-0.0664 0.70349,-0.13284 1.05521,-0.19926 -0.97396,-0.002 -1.9479,-0.002 -2.92184,-0.004 0.36153,0.0674 0.72304,0.13468 1.86663,0.20233 m -26.86382,-3.38726 c 0.27843,0.0162 0.55687,0.0324 0.83533,0.0485 -0.17917,-0.0401 -0.35835,-0.0802 -0.83533,-0.0485 m 21.92603,2.99782 c 0,0 0.18415,-0.0668 0.18415,-0.0668 0,0 -0.40315,0.008 -0.18415,0.0668 z"
   id="path1"
   style="stroke-width:0.61788" /><path
   fill="#ff68c4"
   opacity="1"
   stroke="none"
   d="m 308.46266,84.696411 c -0.67478,3.56496 0.33569,7.242659 -2.36706,10.671941 -6.05624,7.684198 -24.37317,11.982978 -50.61437,13.087918 -13.8533,0.58333 -28.10769,0.40345 -42.18652,0.47378 -13.60018,0.0679 -27.2075,0.0142 -41.47048,0.0142 0,-6.6654 0,-13.134471 0,-19.863833 -15.73347,0 -30.82843,0 -46.30387,0 0,-27.55789 0,-54.8536 0,-82.3000205 40.49048,0 80.86719,0 122.11564,0 0,1.989645 0.37465,3.9707705 -0.31181,5.9201605 -0.13956,0.396334 -4.26809,0.956019 -6.57201,0.96189 -26.63444,0.0676 -53.27453,0.105115 -79.90608,-2.33e-4 -6.65169,-0.02639 -8.9861,0.372852 -8.86599,2.484079 0.46776,8.222503 0.1907,16.448599 0.1907,24.673381 0,0.710587 0,1.421175 0,2.261927 6.63053,0 12.4509,0 19.03832,0 0,-5.38633 0,-10.788121 0,-16.290173 2.15989,-0.107595 3.64278,-0.245612 5.1259,-0.245813 23.44884,-0.0032 46.90539,-0.09123 70.34382,0.05839 15.36432,0.09802 29.44143,1.490995 41.28587,4.510971 13.75141,3.506177 19.84304,8.052899 20.17814,13.217968 0.50325,7.757761 0.20539,15.519929 0.17562,23.628607 -0.004,0.885363 0.065,1.422319 0.1335,1.959289 0.27119,1.014737 -0.72386,1.591691 -4.83686,1.532379 -6.06159,-0.08737 -12.14748,-0.03153 -19.05198,-0.158376 3.51494,-3.105514 11.04795,-0.944998 17.28747,-1.070078 2.86535,-0.93611 2.57162,-1.782788 -1.99452,-1.878112 -5.95882,-0.124401 -11.99731,0.07502 -18.00151,0.135293 -0.18501,-5.501364 -0.37455,-11.002717 -0.55309,-16.504092 -0.086,-2.653238 0.0974,-5.309518 -0.27661,-7.959206 -0.84903,-6.015189 -11.93276,-9.798057 -32.44043,-10.303224 -16.18601,-0.398707 -32.58015,-0.08011 -49.37103,-0.08011 0,3.064025 0,6.198727 0,9.567819 13.44112,0 26.52998,0 40.04875,0 0,2.321914 0,4.412998 0,6.815326 -13.28322,0 -26.52837,0 -40.53398,0 0,2.344219 6e-5,4.382787 -2e-5,6.421356 -1.7e-4,4.378506 -0.12886,8.7575 0.0766,13.135156 0.0627,1.33669 -1.19366,1.949539 -6.14507,1.880936 -6.74716,-0.09351 -13.52106,-0.02337 -20.90931,-0.02337 0,-7.187623 0,-14.126512 0,-21.354786 -5.76106,0 -10.9238,-0.07301 -16.02981,0.0516 -1.27107,0.03115 -3.37799,0.699302 -3.38206,1.076234 -0.10987,10.147426 0.002,20.295088 0.10773,30.44267 0.001,0.112427 0.4002,0.22463 1.38331,0.742172 30.49355,0 61.74996,0 93.56498,0 0,2.4083 0,4.412575 0,6.632652 -16.06453,0 -31.89209,0 -48.18382,0 0,4.291614 0,8.371896 0,12.675051 1.81122,0.0543 3.74314,0.16017 5.67633,0.16218 13.20658,0.0142 26.4155,0.049 39.61974,-0.004 21.87597,-0.0892 35.81986,-4.045655 36.58448,-10.415689 0.34014,-2.8336 0.0574,-5.673538 0.0574,-8.760074 8.75445,0 16.64329,-0.03739 24.51653,0.04797 0.96755,0.01109 1.85157,0.676138 2.65402,1.351876 -0.0323,0.414546 0.0554,0.515425 0.14331,0.616293 z"
   id="path2"
   style="stroke-width:0.73754" /><path
   fill="#797979"
   opacity="1"
   stroke="none"
   d="m 278.84361,63.771029 c -3.16366,-5.2e-5 -5.71174,-5.2e-5 -8.63099,-5.2e-5 0,1.634906 0,2.96026 0,4.851746 4.36736,0 8.82642,-0.119687 13.23686,0.0728 1.32662,0.05785 2.51796,0.983422 3.77127,1.511522 -1.2343,0.422559 -2.42751,1.163147 -3.71037,1.209463 -4.26077,0.153913 -8.55377,0.0582 -13.24651,0.0582 0,1.734068 0,3.157128 0,5.179761 5.29545,0 10.58594,0.06203 15.86842,-0.01913 4.09979,-0.06394 4.86114,0.892548 3.45923,2.875917 -8.53942,0 -17.08734,0 -26.01159,0 0,-6.232694 0,-12.343833 0,-18.675118 8.49424,0 16.80214,0 25.5582,0 0.50323,4.804804 -6.3596,2.229612 -10.29452,2.935817 z"
   id="path3"
   style="stroke-width:0.943751" /><path
   fill="#797979"
   opacity="1"
   stroke="none"
   d="m 386.57155,61.882567 c -1.44319,0.830456 -2.85843,1.748107 -4.4046,1.814612 -4.68036,0.201462 -9.41146,0.0728 -14.56167,0.0728 0,1.642621 0,3.039586 0,4.546611 5.63863,0.265074 11.0894,0.49601 16.50913,0.857157 0.24741,0.01559 0.21543,1.205606 0.36466,2.183053 -5.65301,0 -10.9444,0 -16.77169,0 0,1.81977 0,3.323963 0,5.21371 6.43555,0 12.79586,0 19.15617,0 0.42383,0.323185 0.84769,0.646407 1.27152,0.969559 -1.2926,0.711192 -2.53164,2.002565 -3.88661,2.037539 -7.68259,0.198462 -15.39289,0.0959 -23.39655,0.0959 0,-6.441377 0,-12.538685 0,-18.986665 8.17685,0 16.08653,-0.01866 23.99431,0.03857 0.57172,0.0052 1.12922,0.557233 1.72533,1.157133 z"
   id="path4"
   style="stroke-width:0.943751" /><path
   fill="#7b7b7b"
   opacity="1"
   stroke="none"
   d="m 226.95167,79.200294 c -2.16946,0.322543 -4.04837,0.414308 -7.23723,0.570054 5.40116,-6.366778 10.21735,-12.270414 15.44539,-18.070231 1.59219,-1.766363 6.71226,-1.641418 8.3472,0.18677 5.13557,5.742414 9.93987,11.567735 14.92284,17.420086 -4.4665,0.767688 -6.96712,0.419833 -8.78854,-1.800921 -0.81132,-0.989208 -3.91506,-1.616853 -6.21977,-2.045147 -1.73209,-0.321884 -3.90083,0.08721 -5.78539,-0.09243 -5.71994,-0.545437 -8.95945,0.762267 -10.6845,3.831961 M 238.1675,72.63408 c 2.22323,0 4.44644,0 7.85291,0 -2.50755,-3.047195 -4.45285,-5.41115 -6.84586,-8.319154 -1.9973,2.458777 -3.40073,4.34088 -5.04196,6.163029 -1.60496,1.781915 -0.12003,2.235503 4.03491,2.156125 z"
   id="path5"
   style="stroke-width:0.943751" /><path
   fill="#7b7b7b"
   opacity="1"
   stroke="none"
   d="m 504.68938,78.911037 c -0.721,-3.021207 -4.14584,-3.825151 -9.50863,-3.556723 -5.48437,0.274472 -11.93204,-1.001736 -13.95677,3.435999 -0.27085,0.593524 -3.77959,0.773801 -5.78894,1.14546 -0.40322,-0.234627 -0.80637,-0.469206 -1.20957,-0.703809 4.96115,-5.869376 9.76793,-11.777495 14.97865,-17.584224 1.53717,-1.713049 6.76085,-1.556225 8.36229,0.238146 4.88416,5.471886 9.47209,11.018476 14.00354,16.575159 0.18741,0.229736 -1.35535,0.854221 -2.99003,1.368719 -1.89546,-0.25691 -2.89301,-0.587758 -3.89054,-0.91859 m -7.94527,-10.442618 c -1.0248,-1.178694 -2.04961,-2.357355 -3.58706,-4.125629 -2.41425,2.987447 -4.378,5.417352 -6.4923,8.033595 4.66346,0 8.53282,0 13.04345,0 -1.05565,-1.371219 -1.84504,-2.396635 -2.96409,-3.907966 z"
   id="path6"
   style="stroke-width:0.943751" /><path
   fill="#7a7879"
   opacity="1"
   stroke="none"
   d="m 300.09529,61.541158 c 6.05202,-0.260716 11.78688,-0.604681 17.44607,-0.390177 4.33655,0.164519 4.61551,1.62408 1.89423,3.237999 -5.92578,0.215588 -13.08,-3.509207 -17.08904,1.832592 3.66939,1.088512 7.10919,2.15218 10.80227,2.829721 5.33116,0.977986 10.38303,1.905122 9.89107,5.653049 -0.37927,2.889485 -4.57354,4.946081 -11.74163,5.112601 -4.19105,0.09729 -8.51216,-0.395336 -12.64889,-0.907158 -3.78162,-0.467902 -4.80587,-1.733252 -2.15488,-3.379363 4.62928,0.471463 9.13402,1.188527 13.68154,1.274748 2.00576,0.03805 4.09828,-1.20484 6.15143,-1.866171 -1.59306,-0.89783 -2.91433,-2.053071 -4.85131,-2.625174 -2.18214,-0.644498 -4.95183,-0.708882 -7.40869,-1.121052 -9.88929,-1.659122 -11.58256,-5.419438 -3.97217,-9.651615 z"
   id="path7"
   style="stroke-width:0.943751" /><path
   fill="#7a7a7a"
   opacity="1"
   stroke="none"
   d="m 460.22502,60.462165 c 4.4567,0.777104 8.35913,1.540918 12.69812,2.390189 -2.26625,2.124524 -3.50674,3.095161 -7.47096,1.828925 -5.94045,-1.897426 -12.51429,-1.176124 -16.40022,1.277702 -3.66646,2.315242 -3.79426,5.818822 -0.30086,8.246311 3.87354,2.691589 10.05211,3.171306 16.93899,1.60551 1.80954,-0.411441 4.23744,-0.06203 7.87676,-0.06203 -6.80846,4.300628 -16.37504,5.212614 -24.25312,3.124957 -7.54755,-2.000099 -11.40484,-6.451577 -9.50292,-10.966758 1.94539,-4.618428 8.9749,-7.258178 20.41421,-7.444762 z"
   id="path8"
   style="stroke-width:0.943751" /><path
   fill="#7c7c7c"
   opacity="1"
   stroke="none"
   d="m 395.79585,63.799452 c -4.48446,0.208242 -6.48237,-0.451487 -4.70796,-3.181054 8.84779,0 18.03797,-0.0813 27.20837,0.106838 1.09988,0.02173 2.09225,1.509212 3.88125,2.896292 -5.55335,0.143331 -9.11886,0.23517 -13.11672,0.338284 0,5.261781 0,10.253152 0,15.47909 -2.43595,0 -4.40769,0 -6.82156,0 0,-5.080684 0,-10.069277 0,-15.380794 -2.20108,-0.09729 -4.02572,-0.177794 -6.44338,-0.258802 z"
   id="path9"
   style="stroke-width:0.943751" /><path
   fill="#7c7c7c"
   opacity="1"
   stroke="none"
   d="m 326.28849,63.843439 c -0.64869,-0.904222 -0.71393,-1.829967 -0.68031,-3.029231 8.52608,-0.252287 16.95547,-0.163126 25.37958,-0.238164 4.3536,-0.03857 5.33133,0.890949 3.78259,3.08451 -3.33899,0.08338 -6.73964,0.168512 -10.81364,0.270235 0,5.124274 0,10.212047 0,15.520037 -2.6689,0 -4.66349,0 -7.12229,0 0,-5.132385 0,-10.141408 0,-15.629033 -3.62195,0 -6.79223,0 -10.54593,0.02173 z"
   id="path10"
   style="stroke-width:0.943751" /><path
   fill="#7a7a7a"
   opacity="1"
   stroke="none"
   d="m 432.51458,77.928306 c -1.89461,0.896874 -3.77815,1.490155 -6.64563,2.393368 0,-7.049913 0,-13.065517 0,-19.467317 1.95677,-0.07608 3.93818,-0.153064 6.65663,-0.258821 0,5.898094 0,11.463637 -0.0107,17.33277 z"
   id="path11"
   style="stroke-width:0.943751" /><path
   fill="#f5f0f0"
   opacity="1"
   stroke="none"
   d="m 504.66413,79.183615 c 1.02278,0.0582 2.02033,0.389116 3.46693,0.746059 -2.28194,2.206141 -5.013,4.386137 -8.17883,6.913223 -3.85366,-2.875758 -2.06104,-4.010327 1.36471,-5.09236 1.45275,-0.458885 2.23493,-1.511557 3.34719,-2.566922 z"
   id="path13"
   style="stroke-width:0.943751" /><path
   fill="#828181"
   opacity="1"
   stroke="none"
   d="m 379.3599,57.431474 c -2.97137,0.822378 -5.60816,1.493526 -8.24495,2.164638 -0.44284,-0.460241 -0.88572,-0.920447 -1.32854,-1.380688 3.90692,-1.150777 7.81384,-2.301571 11.72077,-3.4524 0.43221,0.364256 0.86449,0.728495 1.29669,1.092717 -1.03647,0.474818 -2.07291,0.949633 -3.44397,1.575733 z"
   id="path14"
   style="stroke-width:0.943751" /><path
   fill="#f5f0f0"
   opacity="1"
   stroke="none"
   d="m 493.85773,88.642028 c -1.73018,0.574885 -3.13168,1.043117 -5.98296,1.995722 1.01795,-1.504592 1.58197,-2.338261 2.14599,-3.171948 1.38855,0.356507 2.77715,0.713067 3.83697,1.176226 z"
   id="path17"
   style="stroke-width:0.943751" /><path
   fill="#c4c1c1"
   opacity="1"
   stroke="none"
   d="m 528.37155,91.594627 c 1.4894,0.538368 2.97883,1.076768 4.46824,1.615136 0.004,0.15722 0.008,0.314483 0.013,0.471706 -2.54758,-0.359651 -5.09517,-0.719338 -7.64277,-1.079026 0.60787,-0.426555 1.21576,-0.853092 2.36381,-1.235278 0.54018,0.04429 0.79823,0.22754 0.79823,0.22754 z"
   id="path18"
   style="stroke-width:0.943751" /><path
   fill="#c4c1c1"
   opacity="1"
   stroke="none"
   d="m 520.23808,93.383683 c -0.75255,-0.157409 -1.11408,-0.314552 -1.47559,-0.471655 0.97393,0.0017 1.94788,0.0052 2.92182,0.0087 -0.3517,0.154953 -0.70345,0.309913 -1.44623,0.464481 z"
   id="path22"
   style="stroke-width:0.943751" /><path
   fill="#f5f0f0"
   opacity="1"
   stroke="none"
   d="m 493.91418,85.398121 c 0.32809,0.01039 0.50727,0.103365 0.68644,0.196809 -0.27845,-0.03786 -0.55691,-0.07556 -0.68644,-0.196809 z"
   id="path23"
   style="stroke-width:0.943751" /><path
   fill="#c4c1c1"
   opacity="1"
   stroke="none"
   d="m 519.94267,91.20009 c 0.2426,-0.113971 0.48521,-0.2278 0.72778,-0.34174 0.0382,0.138796 0.0764,0.277914 -0.2016,0.433713 -0.31632,0.01559 -0.52618,-0.09191 -0.52618,-0.09191 z"
   id="path25"
   style="stroke-width:0.943751" /><path
   fill="#c4c1c1"
   opacity="1"
   stroke="none"
   d="m 520.25438,91.364872 c -0.17476,0.199265 -0.45139,0.342748 -0.72805,0.486092 -0.04,-0.166433 -0.08,-0.332864 0.14818,-0.575094 0.26816,-0.07592 0.47802,0.03283 0.57987,0.08896 z"
   id="path26"
   style="stroke-width:0.943751" /><path
   fill="#f2eded"
   opacity="1"
   stroke="none"
   d="m 237.62411,72.63305 c -3.61157,0.08026 -5.09648,-0.373324 -3.49152,-2.155222 1.64123,-1.822149 3.04466,-3.704253 5.04196,-6.163046 2.39301,2.908004 4.33831,5.271959 6.84586,8.319173 -3.40647,0 -5.62968,0 -8.3963,-7.14e-4 z"
   id="path28"
   style="stroke-width:0.943751" /><path
   fill="#eee9e9"
   opacity="1"
   stroke="none"
   d="m 496.90894,68.711377 c 0.95422,1.268373 1.74361,2.293787 2.79926,3.665006 -4.51063,0 -8.37999,0 -13.04345,0 2.1143,-2.616243 4.07805,-5.046146 6.4923,-8.033596 1.53745,1.768277 2.56226,2.946936 3.75189,4.36859 z"
   id="path29"
   style="stroke-width:0.943751" /></svg>
