<?xml version="1.0" encoding="UTF-8" standalone="no"?>
<svg
   width="598"
   height="108"
   version="1.1"
   id="svg256"
   sodipodi:docname="nutritrack.svg"
   inkscape:version="1.3.2 (091e20e, 2023-11-25, custom)"
   xmlns:inkscape="http://www.inkscape.org/namespaces/inkscape"
   xmlns:sodipodi="http://sodipodi.sourceforge.net/DTD/sodipodi-0.dtd"
   xmlns="http://www.w3.org/2000/svg"
   xmlns:svg="http://www.w3.org/2000/svg">
  <defs
     id="defs256" />
  <sodipodi:namedview
     id="namedview256"
     pagecolor="#ffffff"
     bordercolor="#000000"
     borderopacity="0.25"
     inkscape:showpageshadow="2"
     inkscape:pageopacity="0.0"
     inkscape:pagecheckerboard="0"
     inkscape:deskcolor="#d1d1d1"
     inkscape:zoom="2.2307692"
     inkscape:cx="299"
     inkscape:cy="54.017241"
     inkscape:window-width="1920"
     inkscape:window-height="1009"
     inkscape:window-x="-8"
     inkscape:window-y="-8"
     inkscape:window-maximized="1"
     inkscape:current-layer="svg256" />
  <path
     style="fill:#000000; stroke:none;"
     d="M0 0L0 42C1.55202 38.3014 1 33.9828 1 30C1 21.2032 3.40659 8.11832 0 0z"
     id="path1" />
  <path
     style="fill:#d369e7; stroke:none;"
     d="M1 0L0 108L598 108L598 0L1 0z"
     id="path2" />
  <path
     style="fill:#c167d1; stroke:none;"
     d="M84 13L84 26C85.5909 22.2087 85.5909 16.7913 84 13z"
     id="path3" />
  <path
     style="fill:#45204e; stroke:none;"
     d="M85 13L85 20C86.0595 17.4657 86.0595 15.5343 85 13z"
     id="path4" />
  <path
     style="fill:#2d1731; stroke:none;"
     d="M86 13C90.4687 14.8752 96.1913 14 101 14L132 14L238 14C233.531 12.1248 227.809 13 223 13L192 13L86 13z"
     id="path5" />
  <path
     style="fill:#381d3e; stroke:none;"
     d="M238 13C242.215 14.7687 247.465 14 252 14L281 14L381 14C376.785 12.2312 371.536 13 367 13L338 13L238 13z"
     id="path6" />
  <path
     style="fill:#432249; stroke:none;"
     d="M381 13C385.215 14.7687 390.465 14 395 14L421 14L514 14C509.785 12.2312 504.536 13 500 13L474 13L381 13z"
     id="path7" />
  <path
     style="fill:#9858a7; stroke:none;"
     d="M514 13L514 28C515.74 23.8524 515.74 17.1476 514 13z"
     id="path8" />
  <path
     style="fill:#000000; stroke:none;"
     d="M86 14C86 41.3219 84 68.7015 84 96L512 96C512 88.2906 510.827 80.6949 511.015 73C511.496 53.3122 513 33.7615 513 14L86 14z"
     id="path9" />
  <path
     style="fill:#2c1e30; stroke:none;"
     d="M513 14L513 26C514.512 22.3957 514.512 17.6043 513 14z"
     id="path10" />
  <path
     style="fill:#29102f; stroke:none;"
     d="M85 20L85 28C86.1614 25.2301 86.1614 22.7698 85 20z"
     id="path11" />
  <path
     style="fill:#a95fb8; stroke:none;"
     d="M84 26L84 34C85.1614 31.2301 85.1614 28.7699 84 26z"
     id="path12" />
  <path
     style="fill:#010101; stroke:none;"
     d="M102 29C102 36.2941 102.409 43.7223 101.91 51C101.582 55.7975 100.059 61.0824 101.313 65.8711C101.916 68.172 103.88 69.9492 105 72L115 72C113.595 66.0988 114 60.0327 114 54C114 47.8596 111.481 34.1441 116.514 29.6034C120.348 26.1441 130.174 28 135 28L170 28C175.801 28 182.247 27.2107 187.976 28.1481C191.933 28.7955 192.114 31.1623 189 33C189 37.481 189.794 42.3116 187 46C187.231 48.1257 187.246 49.8791 187 52C190.835 57.0616 186.227 65.2774 193 68L192 72L196 72C193.619 61.9999 194.763 50.2516 195.015 40C195.098 36.6058 195.11 31.1322 198.314 29.0278C201.508 26.93 207.358 28 211 28L242 28C238.041 26.3389 233.26 27 229 27C220.357 27 211.635 27.3388 203 26.9606C174.828 25.7271 145.195 23.8272 117 26.0934C111.944 26.4997 107.049 28.348 102 29z"
     id="path13" />
  <path
     style="fill:#3c2644; stroke:none;"
     d="M513 26L513 41C514.74 36.8524 514.74 30.1476 513 26z"
     id="path14" />
  <path
     style="fill:#1c0820; stroke:none;"
     d="M85 28L85 37C86.2561 34.0059 86.2561 30.9941 85 28z"
     id="path15" />
  <path
     style="fill:#6d3d58; stroke:none;"
     d="M116 28C122.678 30.8021 132.784 29 140 29L192 29C185.322 26.1979 175.216 28 168 28L116 28z"
     id="path16" />
  <path
     style="fill:#643850; stroke:none;"
     d="M197 28C201.469 29.8752 207.191 29 212 29L242 29C237.531 27.1248 231.809 28 227 28L197 28z"
     id="path17" />
  <path
     style="fill:#4f2d40; stroke:none;"
     d="M242 28C244.613 29.0977 247.165 28.9928 250 29C247.387 27.9023 244.835 28.0072 242 28z"
     id="path18" />
  <path
     style="fill:#b767c6; stroke:none;"
     d="M514 28L514 44C515.812 39.6812 515.812 32.3188 514 28z"
     id="path19" />
  <path
     style="fill:#70445a; stroke:none;"
     d="M115 29L115 43C116.667 39.0279 116.667 32.9721 115 29z"
     id="path20" />
  <path
     style="fill:#e38abc; stroke:none;"
     d="M116 29L116 43C117.667 39.0279 117.667 32.9721 116 29z"
     id="path21" />
  <path
     style="fill:#fe8cd1; stroke:none;"
     d="M117 29L116 71L191 71L191 68L131 68L131 51L186 51L186 48L131 48L131 32L192 32L192 29L117 29z"
     id="path22" />
  <path
     style="fill:#6c3c57; stroke:none;"
     d="M192 29L192 32C192.696 30.4463 192.696 30.5537 192 29z"
     id="path23" />
  <path
     style="fill:#77455f; stroke:none;"
     d="M196 29L196 41C197.512 37.3957 197.512 32.6043 196 29z"
     id="path24" />
  <path
     style="fill:#e38dbd; stroke:none;"
     d="M197 29L197 38C198.256 35.0059 198.256 31.9941 197 29z"
     id="path25" />
  <path
     style="fill:#ff8cd1; stroke:none;"
     d="M198 29L198 71C203.045 70.6019 207.918 70.0006 213 70C210.719 57.7118 212 44.4705 212 32C224.25 32 236.781 31.2331 249 32.0895C258.645 32.7655 268.422 34.7103 278 36C274.167 29.7298 263.534 30.4625 257 29.8302C237.518 27.9449 217.585 29 198 29z"
     id="path26" />
  <path
     style="fill:#c977a7; stroke:none;"
     d="M254 29C255.248 29.6848 255.548 29.7488 257 30C255.752 29.3152 255.452 29.2512 254 29z"
     id="path27" />
  <path
     style="fill:#91587a; stroke:none;"
     d="M257 29C258.248 29.6848 258.548 29.7488 260 30C258.752 29.3152 258.452 29.2512 257 29z"
     id="path28" />
  <path
     style="fill:#482739; stroke:none;"
     d="M260.667 29.3333C260.222 29.7779 261.278 29.7222 261.333 29.6667C261.778 29.2223 260.722 29.2777 260.667 29.3333z"
     id="path29" />
  <path
     style="fill:#8f5478; stroke:none;"
     d="M265.667 30.3333C265.222 30.7779 266.278 30.7222 266.333 30.6667C266.778 30.2223 265.722 30.2777 265.667 30.3333z"
     id="path30" />
  <path
     style="fill:#391e2f; stroke:none;"
     d="M267.667 30.3333C267.222 30.7779 268.278 30.7222 268.333 30.6667C268.778 30.2223 267.722 30.2777 267.667 30.3333z"
     id="path31" />
  <path
     style="fill:#99557d; stroke:none;"
     d="M270.667 31.3333C270.222 31.7779 271.278 31.7222 271.333 31.6667C271.778 31.2223 270.722 31.2778 270.667 31.3333z"
     id="path32" />
  <path
     style="fill:#5b2d46; stroke:none;"
     d="M272 31L273 32L272 31z"
     id="path33" />
  <path
     style="fill:#15070b; stroke:none;"
     d="M114 32L114 55C116.284 49.5574 116.284 37.4426 114 32z"
     id="path34" />
  <path
     style="fill:#e98fc5; stroke:none;"
     d="M131 32L131 48C132.812 43.6811 132.812 36.3189 131 32z"
     id="path35" />
  <path
     style="fill:#87486c; stroke:none;"
     d="M132 32L132 37C132.83 34.9695 132.83 34.0305 132 32z"
     id="path36" />
  <path
     style="fill:#49283a; stroke:none;"
     d="M133 32C138.462 34.2922 146.113 33 152 33L192 33C186.538 30.7078 178.887 32 173 32L133 32z"
     id="path37" />
  <path
     style="fill:#ea8fbe; stroke:none;"
     d="M212 32L212 48C213.812 43.6811 213.812 36.3189 212 32z"
     id="path38" />
  <path
     style="fill:#7f4765; stroke:none;"
     d="M213 32L213 40C214.161 37.2302 214.161 34.7698 213 32z"
     id="path39" />
  <path
     style="fill:#4f2b3e; stroke:none;"
     d="M214 32C222.367 35.5108 235.924 33 245 33C236.633 29.4891 223.076 32 214 32z"
     id="path40" />
  <path
     style="fill:#6d3c58; stroke:none;"
     d="M245 32C246.248 32.6848 246.548 32.7488 248 33C246.752 32.3152 246.452 32.2512 245 32z"
     id="path41" />
  <path
     style="fill:#97567d; stroke:none;"
     d="M248 32C249.248 32.6848 249.548 32.7488 251 33C249.752 32.3152 249.452 32.2512 248 32z"
     id="path42" />
  <path
     style="fill:#cc79ac; stroke:none;"
     d="M251.667 32.3333C251.222 32.7777 252.278 32.7223 252.333 32.6667C252.778 32.2222 251.722 32.2778 251.667 32.3333z"
     id="path43" />
  <path
     style="fill:#b36b93; stroke:none;"
     d="M274 32L275 33L274 32z"
     id="path44" />
  <path
     style="fill:#6e405a; stroke:none;"
     d="M275 32L276 33L275 32z"
     id="path45" />
  <path
     style="fill:#000000; stroke:none;"
     d="M133 33L133 47L172 47C176.053 47 184.025 48.4914 187.397 45.821C190.347 43.4844 189 36.3389 189 33L133 33M214 33L214 67C225.664 67 237.337 67.1349 249 66.9961C252.772 66.9513 259.558 67.0975 261.972 63.5671C263.546 61.2647 262.999 57.6319 263 55C263.003 48.5573 263.193 42.3876 264 36C248.657 30.3657 230.137 33 214 33z"
     id="path46" />
  <path
     style="fill:#653c55; stroke:none;"
     d="M255 33C256.248 33.6848 256.548 33.7488 258 34C256.752 33.3152 256.452 33.2512 255 33z"
     id="path47" />
  <path
     style="fill:#915474; stroke:none;"
     d="M277 33L278 34L277 33z"
     id="path48" />
  <path
     style="fill:#9352a1; stroke:none;"
     d="M84 34L84 41C85.0595 38.4657 85.0595 36.5343 84 34z"
     id="path49" />
  <path
     style="fill:#1d0811; stroke:none;"
     d="M195 34L195 52C196.952 47.349 196.952 38.651 195 34z"
     id="path50" />
  <path
     style="fill:#5e304c; stroke:none;"
     d="M260 34L261 35L260 34z"
     id="path51" />
  <path
     style="fill:#a75e89; stroke:none;"
     d="M261 34L262 35L261 34z"
     id="path52" />
  <path
     style="fill:#fc8ccf; stroke:none;"
     d="M264 35C266.732 41.4474 269.057 59.1824 262.772 64.1211C257.671 68.1287 249.136 67.9976 243 68C234.409 68.0033 225.608 67.4421 217.039 68.054C211.895 68.4214 207.311 69.9994 202 70C209.159 73.0042 220.256 71 228 71C241.022 71 254.146 71.664 267 69.1952C271.072 68.4131 277.57 67.5929 279.972 63.7253C282.512 59.6366 281 51.6476 281 47C281 42.2803 281.258 38.2311 279 34C274.264 36.126 269.103 33.8274 264 35z"
     id="path53" />
  <path
     style="fill:#834e70; stroke:none;"
     d="M279 34L280 35L279 34z"
     id="path54" />
  <path
     style="fill:#3c1930; stroke:none;"
     d="M262 35L263 36L262 35z"
     id="path55" />
  <path
     style="fill:#9a5e81; stroke:none;"
     d="M263 35L264 36L263 35z"
     id="path56" />
  <path
     style="fill:#a26286; stroke:none;"
     d="M280 35L281 36L280 35z"
     id="path57" />
  <path
     style="fill:#72455d; stroke:none;"
     d="M264 36L265 37L264 36z"
     id="path58" />
  <path
     style="fill:#d384b0; stroke:none;"
     d="M281 36L281 53C282.883 48.5135 282.883 40.4865 281 36z"
     id="path59" />
  <path
     style="fill:#663350; stroke:none;"
     d="M132 37L132 47C133.346 43.793 133.346 40.207 132 37z"
     id="path60" />
  <path
     style="fill:#330d21; stroke:none;"
     d="M264 37L264 51C265.667 47.0279 265.667 40.9721 264 37z"
     id="path61" />
  <path
     style="fill:#a76488; stroke:none;"
     d="M265 37L265 48C266.431 44.59 266.431 40.41 265 37z"
     id="path62" />
  <path
     style="fill:#623853; stroke:none;"
     d="M282 37L282 44C283.059 41.4657 283.059 39.5343 282 37z"
     id="path63" />
  <path
     style="fill:#f595ca; stroke:none;"
     d="M197 38L197 71C199.701 64.5642 198 54.9507 198 48C198 44.5814 198.328 41.1656 197 38z"
     id="path64" />
  <path
     style="fill:#110308; stroke:none;"
     d="M263 39L263 64C265.413 58.2497 265.413 44.7503 263 39z"
     id="path65" />
  <path
     style="fill:#52273c; stroke:none;"
     d="M213 40L213 55C214.74 50.8523 214.74 44.1477 213 40z"
     id="path66" />
  <path
     style="fill:#80458d; stroke:none;"
     d="M84 41L84 47C84.9511 44.7147 84.9511 43.2853 84 41z"
     id="path67" />
  <path
     style="fill:#9c6080; stroke:none;"
     d="M196 41L196 51C197.346 47.793 197.346 44.207 196 41z"
     id="path68" />
  <path
     style="fill:#593464; stroke:none;"
     d="M513 41L513 54C514.591 50.2088 514.591 44.7912 513 41z"
     id="path69" />
  <path
     style="fill:#ff00ff; stroke:none;"
     d="M0 42L1 43L0 42z"
     id="path70" />
  <path
     style="fill:#8d5975; stroke:none;"
     d="M115 43L115 52C116.256 49.0059 116.256 45.9941 115 43z"
     id="path71" />
  <path
     style="fill:#3f1b2f; stroke:none;"
     d="M282 44L282 63C284.02 58.1871 284.02 48.8129 282 44z"
     id="path72" />
  <path
     style="fill:#251d2b; stroke:none;"
     d="M512 44L512 68C514.349 62.4032 514.349 49.5968 512 44z"
     id="path73" />
  <path
     style="fill:#673771; stroke:none;"
     d="M84 47L84 55C85.1614 52.2301 85.1614 49.7699 84 47z"
     id="path74" />
  <path
     style="fill:#b36898; stroke:none;"
     d="M132 47L133 48L132 47z"
     id="path75" />
  <path
     style="fill:#70425d; stroke:none;"
     d="M133 47C138.216 49.1889 145.381 48 151 48L187 48C181.784 45.8111 174.619 47 169 47L133 47z"
     id="path76" />
  <path
     style="fill:#ce7ead; stroke:none;"
     d="M186 48L186 51C186.696 49.4463 186.696 49.5537 186 48z"
     id="path77" />
  <path
     style="fill:#4d253b; stroke:none;"
     d="M187 48L187 51C187.696 49.4463 187.696 49.5537 187 48z"
     id="path78" />
  <path
     style="fill:#d887b1; stroke:none;"
     d="M212 48L212 63C213.74 58.8523 213.74 52.1477 212 48z"
     id="path79" />
  <path
     style="fill:#ca7fa9; stroke:none;"
     d="M265 48L265 62C266.667 58.0279 266.667 51.9721 265 48z"
     id="path80" />
  <path
     style="fill:#d784b6; stroke:none;"
     d="M131 51L131 59C132.161 56.2302 132.161 53.7699 131 51z"
     id="path81" />
  <path
     style="fill:#88476c; stroke:none;"
     d="M132 51L133 52L132 51z"
     id="path82" />
  <path
     style="fill:#3c2030; stroke:none;"
     d="M133 51C138.216 53.1889 145.381 52 151 52L187 52C181.784 49.8111 174.619 51 169 51L133 51z"
     id="path83" />
  <path
     style="fill:#b77398; stroke:none;"
     d="M196 51L196 71C198.087 66.0272 198.087 55.9728 196 51z"
     id="path84" />
  <path
     style="fill:#4b1c36; stroke:none;"
     d="M264 51L264 63C265.512 59.3957 265.512 54.6043 264 51z"
     id="path85" />
  <path
     style="fill:#b47297; stroke:none;"
     d="M115 52L115 61C116.256 58.0059 116.256 54.9941 115 52z"
     id="path86" />
  <path
     style="fill:#291622; stroke:none;"
     d="M132 52L132 68L191 68C185.538 65.7078 177.887 67 172 67L133 67C133 62.1833 133.876 56.4715 132 52z"
     id="path87" />
  <path
     style="fill:#000000; stroke:none;"
     d="M133 52L133 67L189 67L189 52L133 52z"
     id="path88" />
  <path
     style="fill:#3e1d2e; stroke:none;"
     d="M195 52L195 71C197.02 66.1871 197.02 56.8129 195 52z"
     id="path89" />
  <path
     style="fill:#be78a0; stroke:none;"
     d="M281 53L281 63C282.346 59.793 282.346 56.207 281 53z"
     id="path90" />
  <path
     style="fill:#010101; stroke:none;"
     d="M303 56L303 61C298.94 61.0112 294.636 60.5374 292 64C296.097 62.916 299.735 62.0381 304 62C298.749 64.5707 292.769 65.2671 287 66C290.023 69.0229 299.057 65.9857 303 65C305.975 64.2563 308.368 65.7806 311 66C315.526 66.3772 319.249 64 323 64C324.462 64 327.414 65.7356 329 66C334.276 66.8793 339.228 63.1368 344 66L343 67C354.697 65.5218 367.247 64.5215 378.999 66.1883C382.994 66.7548 385.996 69.5385 390.039 69.8025C394.072 70.0658 398.003 69.0035 402 69.2091C428.256 70.5597 454.673 70 481 70L481 67C466.483 68.1457 452.465 66.9817 438 66.686C423.073 66.3807 407.978 67.9901 393 68C397.2 64.114 401.781 66.4225 407 65.8148C415.845 64.7848 423.96 60.3941 433 60C422.98 51.7624 406.216 54 394 54C369.388 54 344.594 53.1155 320 54.0185C314.177 54.2323 308.97 56.0332 303 56z"
     id="path91" />
  <path
     style="fill:#895097; stroke:none;"
     d="M513 54L513 67C514.591 63.2087 514.591 57.7913 513 54z"
     id="path92" />
  <path
     style="fill:#3f1e46; stroke:none;"
     d="M84 55L84 68C85.5909 64.2087 85.5909 58.7913 84 55z"
     id="path93" />
  <path
     style="fill:#250f18; stroke:none;"
     d="M114 55L114 63C115.161 60.2302 115.161 57.7698 114 55z"
     id="path94" />
  <path
     style="fill:#3e1829; stroke:none;"
     d="M213 55L213 63C214.161 60.2302 214.161 57.7698 213 55z"
     id="path95" />
  <path
     style="fill:#5b3148; stroke:none;"
     d="M366 56L367 60C367.685 58.7518 367.749 58.4515 368 57L375 57C372.029 55.0566 369.44 55.5954 366 56z"
     id="path96" />
  <path
     style="fill:#613b4a; stroke:none;"
     d="M317.667 56.3333C317.222 56.7778 318.278 56.7222 318.333 56.6667C318.778 56.2222 317.722 56.2778 317.667 56.3333z"
     id="path97" />
  <path
     style="fill:#52303e; stroke:none;"
     d="M328 56C330.816 57.6286 333.762 57.0562 337 57C334.11 55.787 331.126 56.0017 328 56z"
     id="path98" />
  <path
     style="fill:#492b38; stroke:none;"
     d="M341 56C340.869 57.6405 340.631 58.4562 340 60L348 60L348 58L343 58C345.106 57.3562 346.795 57.0941 349 57C346.387 55.9023 343.836 56.0072 341 56z"
     id="path99" />
  <path
     style="fill:#4d313c; stroke:none;"
     d="M352 56C353.506 56.6831 354.315 56.8259 356 57C354.494 56.317 353.685 56.1741 352 56z"
     id="path100" />
  <path
     style="fill:#713e5d; stroke:none;"
     d="M356 56L356 60C356.911 58.6234 357.404 57.5602 358 56L356 56z"
     id="path101" />
  <path
     style="fill:#4d2f3c; stroke:none;"
     d="M358 56L358 60C358.685 58.7517 358.749 58.4515 359 57L363 57C361.231 56.2211 359.964 56.0876 358 56z"
     id="path102" />
  <path
     style="fill:#4f2d3e; stroke:none;"
     d="M377 56C378.813 57.2654 379.883 58.1021 381 60C381.683 58.4939 381.826 57.6852 382 56L377 56z"
     id="path103" />
  <path
     style="fill:#66264f; stroke:none;"
     d="M382 56L383 60C383.751 57.9536 383.656 57.4043 382 56z"
     id="path104" />
  <path
     style="fill:#46323c; stroke:none;"
     d="M384 56C385.506 56.6831 386.315 56.8259 388 57C386.494 56.317 385.685 56.1741 384 56z"
     id="path105" />
  <path
     style="fill:#573948; stroke:none;"
     d="M391 56L392 57L391 56z"
     id="path106" />
  <path
     style="fill:#502d3d; stroke:none;"
     d="M398 58C401.025 57.4379 403.922 57.0636 407 57C403.911 55.7041 400.307 55.3593 398 58z"
     id="path107" />
  <path
     style="fill:#291a23; stroke:none;"
     d="M407 56L406 58L408 58C408 56.1468 408.3 56.6499 407 56z"
     id="path108" />
  <path
     style="fill:#5c3d49; stroke:none;"
     d="M414 57C416.084 57.952 417.715 58.1463 420 58C417.731 56.4925 416.674 56.4582 414 57z"
     id="path109" />
  <path
     style="fill:#733f5c; stroke:none;"
     d="M315 57L315 59C316.635 58.4549 316.455 58.6352 317 57L315 57z"
     id="path110" />
  <path
     style="fill:#3d262f; stroke:none;"
     d="M316 58C317.506 58.6831 318.315 58.8259 320 59C318.19 57.7603 318.223 57.8163 316 58z"
     id="path111" />
  <path
     style="fill:#794060; stroke:none;"
     d="M319 57C320.98 58.8842 322.31 59.4693 325 60C323.051 58.4267 321.412 57.7091 319 57z"
     id="path112" />
  <path
     style="fill:#5e2d4b; stroke:none;"
     d="M327 57L327 60C327.696 58.4463 327.696 58.5537 327 57z"
     id="path113" />
  <path
     style="fill:#ca75a0; stroke:none;"
     d="M328 57L328 60C328.696 58.4463 328.696 58.5537 328 57z"
     id="path114" />
  <path
     style="fill:#73445c; stroke:none;"
     d="M340 57L341 58L340 57z"
     id="path115" />
  <path
     style="fill:#a6698a; stroke:none;"
     d="M341 57L342 58L341 57z"
     id="path116" />
  <path
     style="fill:#b36491; stroke:none;"
     d="M357 57L357 60C357.696 58.4464 357.696 58.5536 357 57z"
     id="path117" />
  <path
     style="fill:#783f60; stroke:none;"
     d="M365 57L365 60C365.696 58.4463 365.696 58.5537 365 57z"
     id="path118" />
  <path
     style="fill:#bd6a97; stroke:none;"
     d="M366 57L366 60C366.696 58.4464 366.696 58.5536 366 57z"
     id="path119" />
  <path
     style="fill:#c06596; stroke:none;"
     d="M382 57L382 60C382.696 58.4463 382.696 58.5537 382 57z"
     id="path120" />
  <path
     style="fill:#5e2f46; stroke:none;"
     d="M390 57L390 60C390.696 58.4463 390.696 58.5537 390 57z"
     id="path121" />
  <path
     style="fill:#b96994; stroke:none;"
     d="M391 57L391 60C391.696 58.4463 391.696 58.5537 391 57z"
     id="path122" />
  <path
     style="fill:#481a37; stroke:none;"
     d="M392 57L392 60C392.696 58.4464 392.696 58.5536 392 57z"
     id="path123" />
  <path
     style="fill:#8a5070; stroke:none;"
     d="M396 57L396 59C397.635 58.455 397.455 58.6351 398 57L396 57z"
     id="path124" />
  <path
     style="fill:#4d2336; stroke:none;"
     d="M413 57L414 58L413 57z"
     id="path125" />
  <path
     style="fill:#3c1d2d; stroke:none;"
     d="M414 58C415.506 58.6831 416.315 58.8259 418 59C416.276 57.9445 416.079 57.9642 414 58z"
     id="path126" />
  <path
     style="fill:#592d44; stroke:none;"
     d="M313.333 58.6667C313.278 58.7222 313.222 59.7778 313.667 59.3333C313.722 59.2777 313.778 58.2223 313.333 58.6667z"
     id="path127" />
  <path
     style="fill:#b0638c; stroke:none;"
     d="M314 58L315 59L314 58z"
     id="path128" />
  <path
     style="fill:#753b58; stroke:none;"
     d="M329.333 58.6667C329.278 58.7222 329.222 59.7778 329.667 59.3333C329.722 59.2777 329.778 58.2223 329.333 58.6667z"
     id="path129" />
  <path
     style="fill:#4a2e3a; stroke:none;"
     d="M330 58L330 60L338 60C335.44 58.0582 333.192 58.035 330 58z"
     id="path130" />
  <path
     style="fill:#744b5e; stroke:none;"
     d="M348 58L348 60L350 60L350 58L348 58z"
     id="path131" />
  <path
     style="fill:#341b27; stroke:none;"
     d="M350.333 58.6667C350.278 58.7222 350.222 59.7778 350.667 59.3333C350.722 59.2777 350.778 58.2223 350.333 58.6667z"
     id="path132" />
  <path
     style="fill:#4b293b; stroke:none;"
     d="M368 58L368 60L375 60L375 58L368 58z"
     id="path133" />
  <path
     style="fill:#562d42; stroke:none;"
     d="M395 58L396 59L395 58z"
     id="path134" />
  <path
     style="fill:#62394f; stroke:none;"
     d="M397 58C397.98 59.7833 397.908 59.5943 400 60C398.861 58.9845 398.388 58.6914 397 58z"
     id="path135" />
  <path
     style="fill:#4b1c31; stroke:none;"
     d="M411 58L412 59L411 58z"
     id="path136" />
  <path
     style="fill:#965776; stroke:none;"
     d="M412.667 58.3333C412.222 58.7777 413.278 58.7222 413.333 58.6667C413.778 58.2222 412.722 58.2778 412.667 58.3333z"
     id="path137" />
  <path
     style="fill:#975a78; stroke:none;"
     d="M419.667 58.3333C419.222 58.7777 420.278 58.7222 420.333 58.6667C420.778 58.2222 419.722 58.2778 419.667 58.3333z"
     id="path138" />
  <path
     style="fill:#ba709d; stroke:none;"
     d="M131 59L131 68C132.256 65.0059 132.256 61.9941 131 59z"
     id="path139" />
  <path
     style="fill:#5a394b; stroke:none;"
     d="M311 59L312 60L311 59z"
     id="path140" />
  <path
     style="fill:#8f5e76; stroke:none;"
     d="M312 59L313 60L312 59z"
     id="path141" />
  <path
     style="fill:#170c0e; stroke:none;"
     d="M314 59C316.613 60.0977 319.164 59.9928 322 60C319.387 58.9023 316.836 59.0072 314 59z"
     id="path142" />
  <path
     style="fill:#4a293a; stroke:none;"
     d="M400 59C402.613 60.0977 405.165 59.9928 408 60C405.387 58.9023 402.836 59.0072 400 59z"
     id="path143" />
  <path
     style="fill:#7f4d64; stroke:none;"
     d="M410.667 59.3333C410.222 59.7778 411.278 59.7222 411.333 59.6667C411.778 59.2222 410.722 59.2777 410.667 59.3333z"
     id="path144" />
  <path
     style="fill:#1e0f17; stroke:none;"
     d="M412 59C414.89 60.2129 417.874 59.9983 421 60C418.11 58.787 415.126 59.0017 412 59z"
     id="path145" />
  <path
     style="fill:#7f4b61; stroke:none;"
     d="M421.667 59.3333C421.222 59.7778 422.278 59.7222 422.333 59.6667C422.778 59.2222 421.722 59.2778 421.667 59.3333z"
     id="path146" />
  <path
     style="fill:#432833; stroke:none;"
     d="M424 61C426.042 62.4161 427.511 62.7451 430 63C429.35 61.7003 429.853 62 428 62C431.926 61.5354 435.28 61.5597 439 60C434.434 58.1376 428.722 60.1104 424 61z"
     id="path147" />
  <path
     style="fill:#13070c; stroke:none;"
     d="M328 60C331.163 61.3274 334.586 60.9996 338 61C334.837 59.6726 331.414 60.0004 328 60z"
     id="path148" />
  <path
     style="fill:#c67ca6; stroke:none;"
     d="M115 61L115 71C116.346 67.793 116.346 64.207 115 61z"
     id="path149" />
  <path
     style="fill:#2a1320; stroke:none;"
     d="M423 61C423.902 62.9225 424.076 62.9988 426 64C425.098 62.0775 424.924 62.0012 423 61z"
     id="path150" />
  <path
     style="fill:#301723; stroke:none;"
     d="M428 61C429.139 62.0154 429.612 62.3087 431 63C430.02 61.2167 430.092 61.4057 428 61z"
     id="path151" />
  <path
     style="fill:#3f2830; stroke:none;"
     d="M284 68C289.619 68 295.435 67.3784 301 68C298.107 64.7405 291.16 66.9885 287 67C292.468 64.9517 298.352 64.4613 304 63C298.697 60.7796 287.328 63.2311 284 68z"
     id="path152" />
  <path
     style="fill:#331524; stroke:none;"
     d="M419 62C419.684 63.5801 419.805 63.7771 421 65C420.316 63.42 420.195 63.2228 419 62z"
     id="path153" />
  <path
     style="fill:#472d39; stroke:none;"
     d="M420 62C421.789 63.4215 422.706 63.6974 425 64C423.25 62.7451 422.143 62.3863 420 62z"
     id="path154" />
  <path
     style="fill:#bb67cb; stroke:none;"
     d="M83 63L83 76C84.5909 72.2087 84.5909 66.7913 83 63z"
     id="path155" />
  <path
     style="fill:#3c1e2c; stroke:none;"
     d="M114 63L114 71C115.161 68.2301 115.161 65.7699 114 63z"
     id="path156" />
  <path
     style="fill:#b26b8f; stroke:none;"
     d="M212 63L212 68C212.83 65.9695 212.83 65.0305 212 63z"
     id="path157" />
  <path
     style="fill:#21111b; stroke:none;"
     d="M213 63L213 68L245 68C236.633 64.4891 223.076 67 214 67C213.826 65.3148 213.683 64.506 213 63z"
     id="path158" />
  <path
     style="fill:#ae668e; stroke:none;"
     d="M264 63L265 64L264 63z"
     id="path159" />
  <path
     style="fill:#5f3451; stroke:none;"
     d="M281 63L282 64L281 63z"
     id="path160" />
  <path
     style="fill:#51273f; stroke:none;"
     d="M412 66L420 65C417.052 62.8538 414.261 63.0335 412 66z"
     id="path161" />
  <path
     style="fill:#5c2d48; stroke:none;"
     d="M262 64L263 65L262 64z"
     id="path162" />
  <path
     style="fill:#6d3859; stroke:none;"
     d="M280 64L281 65L280 64z"
     id="path163" />
  <path
     style="fill:#432130; stroke:none;"
     d="M322 64C325.594 66.9455 330.431 67.6268 335 68C331.151 65.6489 326.396 64.9072 322 64z"
     id="path164" />
  <path
     style="fill:#331f26; stroke:none;"
     d="M420 67C423.725 68.5492 427.997 67.5728 432 68C430.776 65.9599 430.119 66.2713 428 65L429 64C425.82 64.6833 422.971 65.6784 420 67z"
     id="path165" />
  <path
     style="fill:#61384f; stroke:none;"
     d="M260 65L261 66L260 65z"
     id="path166" />
  <path
     style="fill:#af6c93; stroke:none;"
     d="M261 65L262 66L261 65z"
     id="path167" />
  <path
     style="fill:#613049; stroke:none;"
     d="M279 65L280 66L279 65z"
     id="path168" />
  <path
     style="fill:#4d2838; stroke:none;"
     d="M302 65C303.769 65.7789 305.036 65.9124 307 66C305.231 65.2211 303.964 65.0876 302 65z"
     id="path169" />
  <path
     style="fill:#642d4a; stroke:none;"
     d="M307 65L303 66C304.66 67.3166 308.104 67.9436 307 65z"
     id="path170" />
  <path
     style="fill:#3f2531; stroke:none;"
     d="M308 65C310.152 67.5463 312.805 67.3475 316 67C313.473 65.9079 310.698 65.6515 308 65z"
     id="path171" />
  <path
     style="fill:#2d131f; stroke:none;"
     d="M317 65C318.248 65.6849 318.548 65.7488 320 66C318.752 65.3152 318.452 65.2512 317 65z"
     id="path172" />
  <path
     style="fill:#563645; stroke:none;"
     d="M320 65C321.248 65.6848 321.548 65.7488 323 66C321.752 65.3153 321.451 65.2512 320 65z"
     id="path173" />
  <path
     style="fill:#391e2d; stroke:none;"
     d="M335 65C336.506 65.6831 337.315 65.8259 339 66C337.494 65.317 336.685 65.1741 335 65z"
     id="path174" />
  <path
     style="fill:#4e2d44; stroke:none;"
     d="M337 66C339.506 66.9938 341.416 66.7449 344 66C341.477 65.0098 339.642 65.3831 337 66z"
     id="path175" />
  <path
     style="fill:#352028; stroke:none;"
     d="M354 65L354 68C357.735 67.9691 361.305 67.467 365 67C361.588 65.4683 357.73 65.1602 354 65z"
     id="path176" />
  <path
     style="fill:#3e2432; stroke:none;"
     d="M368 65C372.059 67.773 377.24 67 382 67C377.935 65.2937 372.434 65.3499 368 65z"
     id="path177" />
  <path
     style="fill:#3c242f; stroke:none;"
     d="M393 67C395.331 67.9845 397.457 67.9813 400 68C397.821 64.9759 396.164 65.3806 393 67z"
     id="path178" />
  <path
     style="fill:#1f121b; stroke:none;"
     d="M399 65C400.226 67.0347 400.703 67.3265 403 68C401.778 66.267 400.991 65.8486 399 65z"
     id="path179" />
  <path
     style="fill:#412931; stroke:none;"
     d="M409 65L408 68L416 68L409 65z"
     id="path180" />
  <path
     style="fill:#894865; stroke:none;"
     d="M410.667 65.3333C410.222 65.7778 411.278 65.7222 411.333 65.6667C411.778 65.2222 410.722 65.2777 410.667 65.3333z"
     id="path181" />
  <path
     style="fill:#1e1217; stroke:none;"
     d="M415 65C415.684 66.5801 415.805 66.7772 417 68L417 65L415 65z"
     id="path182" />
  <path
     style="fill:#503041; stroke:none;"
     d="M434 67L438 66C435.953 65.2489 435.404 65.3444 434 67z"
     id="path183" />
  <path
     style="fill:#381f2c; stroke:none;"
     d="M438 65C439.918 66.1444 440.732 66.1742 443 66C441.231 65.2211 439.964 65.0876 438 65z"
     id="path184" />
  <path
     style="fill:#422635; stroke:none;"
     d="M452 65C449.916 66.0455 448.365 66.0348 446 66C449.171 67.8997 452.354 67.9694 456 68C454.33 66.3296 453.424 67.3032 454 65L452 65z"
     id="path185" />
  <path
     style="fill:#251b1c; stroke:none;"
     d="M453 66C454.377 66.9114 455.44 67.4038 457 68C456.386 65.1492 455.697 65.1457 453 66z"
     id="path186" />
  <path
     style="fill:#402633; stroke:none;"
     d="M461 67C463.331 67.9845 465.457 67.9813 468 68L467 65C464.828 65.4637 463.042 66.1055 461 67z"
     id="path187" />
  <path
     style="fill:#201318; stroke:none;"
     d="M467 65C468.823 67.8177 470.716 67.8951 474 68C471.821 66.2736 469.698 65.7268 467 65z"
     id="path188" />
  <path
     style="fill:#3f2432; stroke:none;"
     d="M477 65C481.059 67.7731 486.24 67 491 67C486.896 65.2779 481.47 65.5649 477 65z"
     id="path189" />
  <path
     style="fill:#5e364c; stroke:none;"
     d="M255 66C256.248 66.6848 256.548 66.7488 258 67C256.752 66.3152 256.452 66.2512 255 66z"
     id="path190" />
  <path
     style="fill:#c57aa3; stroke:none;"
     d="M276 66L277 67L276 66z"
     id="path191" />
  <path
     style="fill:#6e3e57; stroke:none;"
     d="M277 66L278 67L277 66z"
     id="path192" />
  <path
     style="fill:#794261; stroke:none;"
     d="M301 66C302.314 67.6179 302.877 67.6933 305 68C303.542 66.9189 302.752 66.5639 301 66z"
     id="path193" />
  <path
     style="fill:#954872; stroke:none;"
     d="M314 67C316.163 67.6756 317.732 67.387 320 67C317.761 66.1892 316.353 66.4713 314 67z"
     id="path194" />
  <path
     style="fill:#793e5e; stroke:none;"
     d="M320 66C322.331 66.9845 324.457 66.9813 327 67C324.668 66.0154 322.543 66.0188 320 66z"
     id="path195" />
  <path
     style="fill:#753c5d; stroke:none;"
     d="M332 66C333.769 66.7789 335.036 66.9124 337 67C335.231 66.221 333.964 66.0876 332 66z"
     id="path196" />
  <path
     style="fill:#8d5570; stroke:none;"
     d="M341 66L342 67L341 66z"
     id="path197" />
  <path
     style="fill:#2d1b21; stroke:none;"
     d="M341 67C344.602 68.4972 348.22 67.4777 352 67C348.444 65.5495 344.754 66.7038 341 67z"
     id="path198" />
  <path
     style="fill:#73455d; stroke:none;"
     d="M352 66L352 68L354 68L354 66L352 66z"
     id="path199" />
  <path
     style="fill:#7d4e68; stroke:none;"
     d="M365 66C366.769 66.7789 368.036 66.9124 370 67C368.231 66.221 366.964 66.0876 365 66z"
     id="path200" />
  <path
     style="fill:#5e3b49; stroke:none;"
     d="M393.667 66.3333C393.222 66.7778 394.278 66.7222 394.333 66.6667C394.778 66.2222 393.722 66.2778 393.667 66.3333z"
     id="path201" />
  <path
     style="fill:#432335; stroke:none;"
     d="M403 66C404.139 67.0155 404.611 67.3086 406 68C405.02 66.2166 405.092 66.4057 403 66z"
     id="path202" />
  <path
     style="fill:#724c5d; stroke:none;"
     d="M406 68C407.58 67.3164 407.777 67.1952 409 66C406.908 66.4057 406.98 66.2166 406 68z"
     id="path203" />
  <path
     style="fill:#080405; stroke:none;"
     d="M410 66C411.769 66.7789 413.036 66.9124 415 67C413.231 66.221 411.964 66.0876 410 66z"
     id="path204" />
  <path
     style="fill:#4a2639; stroke:none;"
     d="M417 66C418.248 66.6848 418.548 66.7488 420 67C418.752 66.3152 418.452 66.2512 417 66z"
     id="path205" />
  <path
     style="fill:#8d506b; stroke:none;"
     d="M420.667 66.3333C420.222 66.7778 421.278 66.7222 421.333 66.6667C421.778 66.2222 420.722 66.2778 420.667 66.3333z"
     id="path206" />
  <path
     style="fill:#9e577f; stroke:none;"
     d="M431 66C432.248 66.6848 432.548 66.7488 434 67C432.752 66.3152 432.452 66.2512 431 66z"
     id="path207" />
  <path
     style="fill:#2f212b; stroke:none;"
     d="M436.667 66.3333C436.222 66.7778 437.278 66.7222 437.333 66.6667C437.778 66.2222 436.722 66.2777 436.667 66.3333z"
     id="path208" />
  <path
     style="fill:#613449; stroke:none;"
     d="M441.667 66.3333C441.222 66.7778 442.278 66.7222 442.333 66.6667C442.778 66.2222 441.722 66.2778 441.667 66.3333z"
     id="path209" />
  <path
     style="fill:#2c1d24; stroke:none;"
     d="M441 67C443.3 67.9157 444.377 67.8793 446 66L441 67z"
     id="path210" />
  <path
     style="fill:#723e58; stroke:none;"
     d="M450.667 66.3333C450.222 66.7778 451.278 66.7222 451.333 66.6667C451.778 66.2222 450.722 66.2777 450.667 66.3333z"
     id="path211" />
  <path
     style="fill:#3e2635; stroke:none;"
     d="M457 66C458.506 66.6831 459.315 66.8259 461 67C459.494 66.317 458.685 66.1741 457 66z"
     id="path212" />
  <path
     style="fill:#74405a; stroke:none;"
     d="M461.667 66.3333C461.222 66.7778 462.278 66.7222 462.333 66.6667C462.778 66.2222 461.722 66.2777 461.667 66.3333z"
     id="path213" />
  <path
     style="fill:#784663; stroke:none;"
     d="M473 66C475.052 66.8743 476.747 66.9528 479 67C476.948 66.1258 475.253 66.0472 473 66z"
     id="path214" />
  <path
     style="fill:#502b3e; stroke:none;"
     d="M245.667 67.3333C245.222 67.7778 246.278 67.7222 246.333 67.6667C246.778 67.2222 245.722 67.2778 245.667 67.3333z"
     id="path215" />
  <path
     style="fill:#6c4159; stroke:none;"
     d="M247 67C248.506 67.683 249.315 67.8259 251 68C249.494 67.3169 248.685 67.1741 247 67z"
     id="path216" />
  <path
     style="fill:#bb6d99; stroke:none;"
     d="M251.667 67.3333C251.222 67.7778 252.278 67.7222 252.333 67.6667C252.778 67.2223 251.722 67.2778 251.667 67.3333z"
     id="path217" />
  <path
     style="fill:#a4638d; stroke:none;"
     d="M274 67L275 68L274 67z"
     id="path218" />
  <path
     style="fill:#582e47; stroke:none;"
     d="M275 67L276 68L275 67z"
     id="path219" />
  <path
     style="fill:#2f1824; stroke:none;"
     d="M317 67C318.769 67.7789 320.036 67.9124 322 68C320.231 67.2211 318.964 67.0876 317 67z"
     id="path220" />
  <path
     style="fill:#462b37; stroke:none;"
     d="M365 67C366.248 67.6849 366.548 67.7488 368 68C366.752 67.3152 366.452 67.2512 365 67z"
     id="path221" />
  <path
     style="fill:#4a2a3c; stroke:none;"
     d="M474 67C475.248 67.6849 475.548 67.7488 477 68C475.752 67.3153 475.452 67.2512 474 67z"
     id="path222" />
  <path
     style="fill:#0a090b; stroke:none;"
     d="M511 67L511 84C512.883 79.5135 512.883 71.4865 511 67z"
     id="path223" />
  <path
     style="fill:#a15cae; stroke:none;"
     d="M513 67L513 75C514.161 72.2302 514.161 69.7698 513 67z"
     id="path224" />
  <path
     style="fill:#1c0a1f; stroke:none;"
     d="M84 68L84 85C85.8826 80.5135 85.8826 72.4865 84 68z"
     id="path225" />
  <path
     style="fill:#b46f94; stroke:none;"
     d="M191 68L191 71C191.696 69.4463 191.696 69.5537 191 68z"
     id="path226" />
  <path
     style="fill:#371825; stroke:none;"
     d="M192 68L192 71C192.696 69.4463 192.696 69.5537 192 68z"
     id="path227" />
  <path
     style="fill:#bb719e; stroke:none;"
     d="M270 68L271 69L270 68z"
     id="path228" />
  <path
     style="fill:#824a6c; stroke:none;"
     d="M271 68L272 69L271 68z"
     id="path229" />
  <path
     style="fill:#3f2230; stroke:none;"
     d="M310.333 68.6667C310.278 68.7222 310.222 69.7778 310.667 69.3333C310.722 69.2778 310.778 68.2223 310.333 68.6667z"
     id="path230" />
  <path
     style="fill:#894c6e; stroke:none;"
     d="M311 68C312.248 68.6848 312.548 68.7488 314 69C312.752 68.3152 312.452 68.2512 311 68z"
     id="path231" />
  <path
     style="fill:#482732; stroke:none;"
     d="M351 68C352.248 68.6849 352.548 68.7488 354 69C352.752 68.3152 352.452 68.2512 351 68z"
     id="path232" />
  <path
     style="fill:#3e2746; stroke:none;"
     d="M512 68L512 84C513.812 79.6812 513.812 72.3188 512 68z"
     id="path233" />
  <path
     style="fill:#92547b; stroke:none;"
     d="M265.667 69.3333C265.222 69.7777 266.278 69.7222 266.333 69.6667C266.778 69.2222 265.722 69.2778 265.667 69.3333z"
     id="path234" />
  <path
     style="fill:#3d2132; stroke:none;"
     d="M267.667 69.3333C267.222 69.7777 268.278 69.7222 268.333 69.6667C268.778 69.2222 267.722 69.2778 267.667 69.3333z"
     id="path235" />
  <path
     style="fill:#724557; stroke:none;"
     d="M307 69C308.248 69.6848 308.548 69.7488 310 70C308.752 69.3152 308.452 69.2512 307 69z"
     id="path236" />
  <path
     style="fill:#9e6284; stroke:none;"
     d="M257 70C258.248 70.6848 258.548 70.7488 260 71C258.752 70.3152 258.452 70.2512 257 70z"
     id="path237" />
  <path
     style="fill:#522f41; stroke:none;"
     d="M260.667 70.3333C260.222 70.7777 261.278 70.7222 261.333 70.6667C261.778 70.2222 260.722 70.2777 260.667 70.3333z"
     id="path238" />
  <path
     style="fill:#3d212e; stroke:none;"
     d="M303.333 70.6667C303.278 70.7222 303.222 71.7778 303.667 71.3333C303.722 71.2778 303.778 70.2223 303.333 70.6667z"
     id="path239" />
  <path
     style="fill:#60394a; stroke:none;"
     d="M304 70C305.248 70.6848 305.548 70.7488 307 71C305.752 70.3153 305.451 70.2512 304 70z"
     id="path240" />
  <path
     style="fill:#854a6d; stroke:none;"
     d="M115 71C121.678 73.8021 131.784 72 139 72L191 72C184.322 69.1979 174.216 71 167 71L115 71z"
     id="path241" />
  <path
     style="fill:#542d41; stroke:none;"
     d="M191 71L192 72L191 71z"
     id="path242" />
  <path
     style="fill:#8d4f74; stroke:none;"
     d="M196 71C200.469 72.8752 206.191 72 211 72L241 72C236.531 70.1248 230.809 71 226 71L196 71z"
     id="path243" />
  <path
     style="fill:#6e4059; stroke:none;"
     d="M241 71C243.613 72.0977 246.164 71.9928 249 72C246.387 70.9023 243.836 71.0072 241 71z"
     id="path244" />
  <path
     style="fill:#412334; stroke:none;"
     d="M249 71C250.248 71.6848 250.548 71.7488 252 72C250.752 71.3152 250.452 71.2512 249 71z"
     id="path245" />
  <path
     style="fill:#3f1a2c; stroke:none;"
     d="M300.333 71.6667C300.278 71.7222 300.222 72.7778 300.667 72.3333C300.722 72.2778 300.778 71.2222 300.333 71.6667z"
     id="path246" />
  <path
     style="fill:#653e4f; stroke:none;"
     d="M301.667 71.3333C301.222 71.7778 302.278 71.7222 302.333 71.6667C302.778 71.2222 301.722 71.2777 301.667 71.3333z"
     id="path247" />
  <path
     style="fill:#533440; stroke:none;"
     d="M295 73C296.846 73.4675 298.069 73.3013 300 73C297.956 72.2256 297.155 72.4078 295 73z"
     id="path248" />
  <path
     style="fill:#c96ad9; stroke:none;"
     d="M513 75L513 97C515.219 91.7128 515.219 80.2872 513 75z"
     id="path249" />
  <path
     style="fill:#9e54ac; stroke:none;"
     d="M83 76L83 85C84.2561 82.0059 84.2561 78.9941 83 76z"
     id="path250" />
  <path
     style="fill:#35153d; stroke:none;"
     d="M512 84L512 92C513.161 89.2302 513.161 86.7698 512 84z"
     id="path251" />
  <path
     style="fill:#763e80; stroke:none;"
     d="M83 85L83 97C84.5124 93.3957 84.5124 88.6043 83 85z"
     id="path252" />
  <path
     style="fill:#4b2355; stroke:none;"
     d="M512 92L512 97C512.83 94.9695 512.83 94.0305 512 92z"
     id="path253" />
  <path
     style="fill:#582d60; stroke:none;"
     d="M84 96C89.951 98.4972 98.5798 97 105 97L151 97C145.049 94.5028 136.42 96 130 96L84 96z"
     id="path254" />
  <path
     style="fill:#4a2751; stroke:none;"
     d="M151 96C155.969 98.0851 162.65 97 168 97L203 97L326 97C321.031 94.9149 314.35 96 309 96L274 96L151 96z"
     id="path255" />
  <path
     style="fill:#3f2044; stroke:none;"
     d="M326 96C331.216 98.1889 338.381 97 344 97L381 97L512 97C506.784 94.8111 499.619 96 494 96L457 96L326 96z"
     id="path256" />
</svg>
