<?xml version="1.0" encoding="UTF-8" standalone="no"?>
<svg
   version="1.1"
   id="Layer_1"
   x="0px"
   y="0px"
   width="650"
   viewBox="0 0 650 200"
   enable-background="new 0 0 1234 935"
   xml:space="preserve"
   sodipodi:docname="nutritrack.svg"
   inkscape:version="1.3.2 (091e20e, 2023-11-25, custom)"
   height="200"
   xmlns:inkscape="http://www.inkscape.org/namespaces/inkscape"
   xmlns:sodipodi="http://sodipodi.sourceforge.net/DTD/sodipodi-0.dtd"
   xmlns="http://www.w3.org/2000/svg"
   xmlns:svg="http://www.w3.org/2000/svg"><defs
   id="defs270" /><sodipodi:namedview
   id="namedview270"
   pagecolor="#ffffff"
   bordercolor="#000000"
   borderopacity="0.25"
   inkscape:showpageshadow="2"
   inkscape:pageopacity="0.0"
   inkscape:pagecheckerboard="0"
   inkscape:deskcolor="#d1d1d1"
   inkscape:zoom="0.86951872"
   inkscape:cx="562.9551"
   inkscape:cy="283.49016"
   inkscape:window-width="1920"
   inkscape:window-height="1009"
   inkscape:window-x="-8"
   inkscape:window-y="-8"
   inkscape:window-maximized="1"
   inkscape:current-layer="Layer_1" />














































































































































































































































































<path
   fill="#fffafa"
   opacity="1"
   stroke="none"
   d="m 301.87653,201.14883 c -101.83331,0 -203.016639,0 -304.199987,0 -1.22e-5,-66.66664 -1.22e-5,-133.333297 -3.65e-5,-199.9999685 216.6665435,-1.36e-5 433.3331135,-1.36e-5 649.9997735,-2.74e-5 1.2e-4,66.6665899 1.2e-4,133.3332059 2.3e-4,199.9999159 -115.04993,8e-5 -230.09996,8e-5 -345.79998,8e-5 m 216.37951,-74.8336 c -0.0382,-0.081 -0.0765,-0.16197 -0.11489,-0.24295 -0.243,0.0664 -0.48604,0.13277 -1.26635,0.28751 0.0401,0.097 0.0801,0.19399 0.12025,0.29099 0.27714,-0.0835 0.55425,-0.16709 1.26104,-0.33555 m -25.04123,-0.0143 c -1.07074,0.221 -2.14147,0.44197 -3.98043,0.8215 2.78718,0.22411 4.57607,0.36794 6.20651,0.49902 -0.3957,-0.48082 -0.70554,-0.85729 -0.6222,-1.31496 -0.25363,-0.0111 -0.50722,-0.0219 -1.60388,-0.006 m 31.3003,0.0415 c -0.60895,0.24859 -1.21793,0.49719 -1.82688,0.74579 2.55214,0.20961 5.10424,0.41922 7.65632,0.62885 -0.004,-0.0916 -0.008,-0.18327 -0.013,-0.27491 -1.49205,-0.31377 -2.98411,-0.62754 -3.78714,-0.99324 0.82788,-0.0214 1.65573,-0.0426 2.48362,-0.0639 -0.0865,-0.13657 -0.17312,-0.27318 -0.2597,-0.40978 -1.14765,0.10506 -2.29534,0.21022 -4.25371,0.36719 m -116.26005,1.92468 c 2.54433,-0.39227 5.08869,-0.78455 8.03292,-1.23847 -0.98166,-0.48376 -1.84216,-0.90783 -2.01141,-0.99124 -6.07887,0.20843 -11.26633,0.38629 -16.45385,0.56416 -0.11427,-0.17055 -0.22843,-0.34107 -0.34265,-0.5116 -1.29785,0.42309 -2.59576,0.84621 -3.75088,1.22278 2.27827,1.18625 4.67191,1.1402 7.88792,0.3375 1.65937,-0.41417 5.30157,-1.36997 4.36827,0.62434 -0.75316,0.2978 -1.50634,0.59559 -2.25951,0.89339 0.36858,0.0922 0.73715,0.1843 1.1057,0.27645 0.8955,-0.33263 1.79102,-0.66526 3.42349,-1.17731 m 98.67365,-8.66595 c 0.73804,-0.25676 2.28353,-0.6207 2.0958,-0.7546 -4.53948,-3.23844 -9.13554,-6.47097 -14.02835,-9.65997 -1.60429,-1.04568 -6.83722,-1.13707 -8.37713,-0.1388 -5.21994,3.38416 -10.03524,6.8274 -15.00519,10.24806 0.40392,0.13673 0.80778,0.27344 1.21171,0.41017 2.01291,-0.21661 5.52788,-0.32166 5.7992,-0.66758 2.02832,-2.58629 8.4874,-1.84254 13.98152,-2.0025 5.37229,-0.15638 8.8032,0.3121 9.47486,2.39058 -1.0889,0.45621 -1.87247,1.06971 -3.3278,1.33714 -3.43183,0.63061 -5.22762,1.29184 -1.36712,2.96782 3.17144,-1.47279 5.90732,-2.74327 9.5425,-4.1304 M 323.99914,110.3155 c 3.17585,0 6.35175,0 9.98012,0 0,3.19817 0,6.11742 0,9.10856 2.46316,0 4.46128,0 7.13491,0 0,-3.09348 0,-6.05863 0,-9.04504 4.08122,-0.0594 7.4879,-0.10885 10.83281,-0.15749 1.55148,-1.2784 0.57202,-1.82021 -3.78929,-1.79765 -8.43905,0.0437 -16.88338,-0.008 -25.38558,-0.40188 -0.0408,-7.79734 0.24269,-15.596581 -0.23611,-23.391368 -0.31881,-5.189728 -6.11439,-9.758156 -19.19748,-13.281083 -11.2688,-3.034387 -24.66176,-4.433965 -39.27938,-4.532496 -22.29932,-0.150363 -44.61588,-0.06174 -66.92511,-0.05872 -1.41104,2.06e-4 -2.82187,0.138797 -4.87678,0.246987 0,5.528292 0,10.955898 0,16.367918 -6.26727,0 -11.80478,0 -18.11306,0 0,-0.844746 0,-1.55872 0,-2.272709 0,-8.264038 0.2636,-16.529408 -0.18143,-24.791169 -0.11429,-2.121305 2.10669,-2.5224 8.4351,-2.495935 25.33726,0.105913 50.68264,0.06832 76.02265,2.19e-4 2.19195,-0.0069 6.11983,-0.568249 6.2526,-0.966463 0.65311,-1.958705 0.29667,-3.949293 0.29667,-5.948428 -39.24379,0 -77.65818,0 -116.18083,0 0,27.577457 0,55.003477 0,82.692927 14.72334,0 29.08468,0 44.0535,0 0,6.76148 0,13.26147 0,19.95867 13.5698,0 26.51581,0.0534 39.45502,-0.0143 13.3946,-0.0707 26.95623,0.11016 40.13625,-0.47604 24.96589,-1.11023 42.39261,-5.42954 48.15452,-13.1504 2.5714,-3.44567 1.61003,-7.14093 3.43632,-10.75219 14.56101,0 29.12207,0 43.68311,0 10e-4,-0.193 0.004,-0.38599 0.005,-0.57901 -14.95746,0 -29.91489,0 -44.89452,-0.32613 -0.87787,-0.36378 -1.71892,-1.03262 -2.63945,-1.04314 -7.49059,-0.0858 -14.99605,-0.0482 -23.32502,-0.0482 0,3.10129 0.26895,5.95477 -0.0546,8.80191 -0.72745,6.40044 -13.99367,10.37583 -34.80648,10.46539 -12.56251,0.0541 -25.12948,0.0186 -37.69422,0.004 -1.83924,-0.001 -3.67726,-0.10839 -5.40046,-0.16296 0,-4.32369 0,-8.42347 0,-12.73555 15.49995,0 30.55829,0 45.84208,0 0,-2.23068 0,-4.24453 0,-6.66432 -30.2688,0 -60.00615,0 -89.01771,0 -0.93533,-0.52002 -1.31497,-0.6327 -1.31609,-0.74572 -0.10002,-10.19602 -0.20699,-20.39212 -0.1025,-30.588006 0.004,-0.378734 2.0084,-1.050205 3.21769,-1.081376 4.85786,-0.125119 9.76971,-0.05186 15.25078,-0.05186 0,7.262782 0,14.234812 0,21.456742 7.02917,0 13.47386,-0.0705 19.89311,0.0235 4.71077,0.069 5.90611,-0.54684 5.84642,-1.88991 -0.19552,-4.39856 -0.073,-8.79846 -0.0729,-13.197863 9e-5,-2.048304 2e-5,-4.096609 2e-5,-6.452006 13.32494,0 25.92637,0 38.56404,0 0,-2.413811 0,-4.514881 0,-6.847873 -12.86176,0 -25.31452,0 -38.10238,0 0,-3.385172 0,-6.534828 0,-9.6135 15.97482,0 31.57224,-0.320083 46.97161,0.08053 19.51098,0.507583 30.05603,4.308503 30.8638,10.352417 0.3558,2.662335 0.18125,5.33131 0.26318,7.997199 0.16986,5.527647 0.35019,11.055246 -0.17447,16.765806 -7.27357,2.37504 -5.57729,4.56656 4.32953,5.53347 2.46122,0.24022 5.2358,0.27774 7.42182,0.65335 1.94041,0.33342 3.26402,1.00669 4.85991,1.52996 -2.05679,0.38542 -4.15303,1.10975 -6.16234,1.08759 -4.55557,-0.0502 -9.06832,-0.46816 -13.70579,-0.74292 -2.65569,0.95935 -1.62963,1.69681 2.15871,1.96948 4.14406,0.29828 8.47283,0.58544 12.67131,0.52869 7.18079,-0.097 11.38249,-1.2956 11.76244,-2.97961 0.49281,-2.18426 -4.568,-2.7246 -9.90861,-3.29459 -3.69962,-0.39485 -7.14554,-1.01477 -9.36072,-1.51985 5.78028,0.005 11.5704,-0.0508 17.33739,0.037 3.91311,0.0595 4.8598,-0.52011 5.77079,-1.56485 m -47.49678,-0.0297 c 3.3252,-0.4116 10.2002,1.08922 9.69608,-1.71101 -8.7716,0 -17.09422,0 -25.60351,0 0,3.68986 0,7.25142 0,10.88382 8.94008,0 17.50314,0 26.0577,0 1.4044,-1.15592 0.64169,-1.71325 -3.46537,-1.6761 -5.29183,0.0479 -10.5917,0.0111 -15.89654,0.0111 0,-1.17878 0,-2.00814 0,-3.01875 4.70105,0 9.00166,0.0558 13.26998,-0.0339 1.28514,-0.0269 2.48047,-0.45861 3.71694,-0.70487 -1.25552,-0.30779 -2.44896,-0.84721 -3.77793,-0.88093 -4.41826,-0.11202 -8.88523,-0.0423 -13.26035,-0.0423 0,-1.10236 0,-1.87477 0,-2.82759 2.92445,0 5.47705,0 9.263,5e-5 m 107.27018,-1.2766 c -0.56515,-0.17362 -1.12365,-0.496 -1.69637,-0.49837 -7.9218,-0.0332 -15.8455,-0.0225 -24.03684,-0.0225 0,3.75787 0,7.31136 0,11.06538 8.01784,0 15.74181,0.0595 23.43802,-0.0559 1.35736,-0.0205 2.5986,-0.77298 3.89349,-1.18746 -0.42458,-0.18835 -0.8492,-0.37672 -1.27378,-0.56508 -6.37158,0 -12.74316,0 -19.19011,0 0,-1.10134 0,-1.97796 0,-3.03853 5.83761,0 11.13838,0 16.80141,0 -0.14949,-0.56966 -0.1175,-1.26268 -0.36531,-1.27226 -5.42934,-0.2105 -10.88976,-0.34511 -16.53838,-0.49955 0,-0.87831 0,-1.69245 0,-2.64978 5.15934,0 9.89882,0.0749 14.58748,-0.0424 1.54891,-0.0388 2.96664,-0.57356 4.38039,-1.23354 m -159.57974,10.1343 c 1.437,-1.65451 4.68226,-2.41663 10.41232,-2.09875 1.88791,0.10473 4.06049,-0.13373 5.79566,0.0539 2.30879,0.24961 5.41801,0.6154 6.23078,1.1919 1.82466,1.29428 4.3297,1.49699 8.80413,1.04958 -4.9918,-3.41075 -9.80463,-6.80572 -14.94929,-10.15238 -1.63786,-1.06546 -6.76699,-1.13826 -8.362,-0.10886 -5.23731,3.38013 -10.06203,6.82074 -15.47276,10.53129 3.19451,-0.0908 5.07674,-0.14418 7.54116,-0.46672 m 232.84016,-10.79313 c -10.90437,0.11648 -17.94634,1.65491 -19.89519,4.3465 -1.90529,2.63144 1.95886,5.22577 9.51978,6.3914 7.89205,1.21669 17.47558,0.68519 24.2961,-1.82121 -3.64577,0 -6.07797,-0.20361 -7.89073,0.0361 -6.89907,0.91251 -13.08859,0.63296 -16.96899,-0.93569 -3.4996,-1.41476 -3.37156,-3.45661 0.30139,-4.80593 3.89281,-1.43008 10.4783,-1.85046 16.42928,-0.74464 3.97126,0.73796 5.21393,0.17225 7.4842,-1.06589 -4.34668,-0.49499 -8.25603,-0.94013 -13.27584,-1.4007 m -63.39413,1.9528 c 1.82791,0.0471 3.65581,0.094 5.86079,0.15066 0,3.09555 0,6.0029 0,8.9639 2.41813,0 4.39336,0 6.83364,0 0,-3.04567 0,-5.95461 0,-9.02117 4.00494,-0.0601 7.57676,-0.11377 13.13996,-0.19717 -1.79216,-0.80837 -2.78629,-1.6748 -3.88813,-1.68796 -9.18664,-0.10962 -18.39312,-0.0623 -27.2566,-0.0623 -1.77754,1.59077 0.2239,1.97529 5.31034,1.85404 m 36.20081,8.05718 c 0,-3.24358 0,-6.48715 0,-9.92454 -2.72327,0.0616 -4.70818,0.10647 -6.66842,0.15084 0,3.73093 0,7.23681 0,11.34551 2.87255,-0.52639 4.75944,-0.87216 6.66842,-1.57181 m -52.92475,-11.85673 c 1.03832,-0.27671 2.0766,-0.55343 3.11492,-0.83015 -0.43299,-0.21228 -0.86602,-0.42454 -1.29901,-0.63682 -3.91385,0.67067 -7.82769,1.34135 -11.74154,2.01202 0.44361,0.26824 0.88727,0.53646 1.3309,0.80469 2.64146,-0.39114 5.28293,-0.78228 8.59473,-1.34974 m 123.63333,20.97758 c 2.27547,-0.34433 4.55095,-0.68866 6.84082,-1.03514 0.83095,0.34852 1.58672,0.66551 2.34253,0.98253 0.51268,-0.13675 1.02542,-0.27334 1.53812,-0.41003 -1.76553,-0.57861 -3.53106,-1.15727 -5.29661,-1.7359 -2.07879,0.69843 -4.1576,1.3969 -5.42486,2.19854 m -8.93842,-2.76209 c -1.39101,-0.20781 -2.78206,-0.41558 -4.17308,-0.62338 -0.56501,0.48588 -1.13003,0.97175 -2.14979,1.84863 2.85633,-0.55518 4.26031,-0.82806 6.32287,-1.22525 m 26.48953,2.82579 c 0.35238,-0.0903 0.70473,-0.18061 1.05708,-0.27092 -0.97569,-0.002 -1.95136,-0.003 -2.92702,-0.005 0.36217,0.0916 0.72432,0.18311 1.86994,0.27509 m -26.91144,-4.60547 c 0.27893,0.022 0.55786,0.044 0.83681,0.0659 -0.17948,-0.0545 -0.35898,-0.10901 -0.83681,-0.0659 m 21.9649,4.07597 c 0,0 0.18447,-0.0908 0.18447,-0.0908 0,0 -0.40386,0.0111 -0.18447,0.0908 z"
   id="path1"
   style="stroke-width:0.72111" /><path
   fill="#ff68c4"
   opacity="1"
   stroke="none"
   d="m 322.84027,123.65663 c -0.64199,3.53781 0.31938,7.1875 -2.25202,10.59067 -5.76191,7.62567 -23.18863,11.89171 -48.15452,12.98824 -13.18002,0.57889 -26.74165,0.40038 -40.13625,0.47018 -12.93921,0.0675 -25.88522,0.0141 -39.45502,0.0141 0,-6.61464 0,-13.03445 0,-19.71256 -14.96882,0 -29.33016,0 -44.0535,0 0,-27.34802 0,-54.435853 0,-81.673251 38.52265,0 76.93704,0 116.18083,0 0,1.974497 0.35644,3.940526 -0.29667,5.875078 -0.13277,0.393317 -4.06065,0.948733 -6.2526,0.954559 -25.34001,0.06707 -50.68539,0.104335 -76.02265,-2.3e-4 -6.32841,-0.02615 -8.54937,0.37001 -8.4351,2.465157 0.44503,8.159885 0.18143,16.323334 0.18143,24.485482 0,0.705171 0,1.410355 0,2.244699 6.30828,0 11.84579,0 18.11306,0 0,-5.345313 0,-10.705964 0,-16.166113 2.05491,-0.106774 3.46574,-0.243738 4.87678,-0.243941 22.30923,-0.0027 44.62579,-0.09051 66.92511,0.05799 14.61762,0.09729 28.01058,1.479637 39.27938,4.47662 13.08309,3.479472 18.87867,7.991566 19.19748,13.1173 0.4788,7.698683 0.19541,15.401742 0.16709,23.44866 -0.004,0.87862 0.0618,1.41149 0.12701,1.94437 0.25801,1.00701 -0.68868,1.57957 -4.60179,1.52071 -5.76699,-0.0867 -11.55711,-0.0313 -18.12605,-0.15717 3.34411,-3.08186 10.51102,-0.9378 16.4473,-1.06193 2.72609,-0.92898 2.44664,-1.76921 -1.89759,-1.86381 -5.66922,-0.12346 -11.41424,0.0745 -17.12664,0.13427 -0.17601,-5.45947 -0.35634,-10.918923 -0.52621,-16.378408 -0.0819,-2.633029 0.0927,-5.26908 -0.26317,-7.898586 -0.80777,-5.969387 -11.35282,-9.723437 -30.86382,-10.224762 -15.39937,-0.395674 -30.99676,-0.07954 -46.9716,-0.07954 0,3.040695 0,6.151526 0,9.494956 12.78788,0 25.24063,0 38.10238,0 0,2.304224 0,4.379385 0,6.763419 -12.63766,0 -25.23909,0 -38.56403,0 0,2.326364 6e-5,4.349412 -2e-5,6.372459 -1.6e-4,4.345157 -0.1226,8.690802 0.0729,13.035122 0.0596,1.32651 -1.13565,1.93469 -5.84642,1.86661 -6.41925,-0.0928 -12.86394,-0.0232 -19.89312,-0.0232 0,-7.13288 0,-14.018931 0,-21.192157 -5.48107,0 -10.3929,-0.07249 -15.25077,0.05122 -1.20929,0.03089 -3.21381,0.693978 -3.21769,1.06804 -0.10452,10.070147 0.002,20.140527 0.1025,30.210827 0.001,0.11157 0.38075,0.22292 1.31608,0.73652 29.01156,0 58.74892,0 89.01772,0 0,2.38996 0,4.37897 0,6.58214 -15.28379,0 -30.34213,0 -45.84208,0 0,4.25893 0,8.30814 0,12.57852 1.72319,0.0538 3.56122,0.15895 5.40046,0.16095 12.56474,0.0141 25.1317,0.0486 37.69422,-0.004 20.8128,-0.0885 34.07902,-4.01482 34.80648,-10.33635 0.32361,-2.81202 0.0546,-5.63033 0.0546,-8.69336 8.32898,0 15.83443,-0.0371 23.32502,0.0476 0.92053,0.011 1.76159,0.67099 2.52504,1.34158 -0.0308,0.41139 0.0527,0.5115 0.13635,0.6116 z"
   id="path2"
   style="stroke-width:0.71665" /><path
   fill="#797979"
   opacity="1"
   stroke="none"
   d="m 275.88567,108.94008 c -3.16926,-3e-5 -5.72186,-3e-5 -8.64629,-3e-5 0,0.94107 0,1.70396 0,2.79272 4.37511,0 8.84207,-0.0689 13.26033,0.0419 1.32897,0.0333 2.52242,0.56607 3.77795,0.87005 -1.23649,0.24323 -2.43181,0.66952 -3.71695,0.69618 -4.26832,0.0886 -8.56893,0.0335 -13.26998,0.0335 0,0.99815 0,1.81728 0,2.98153 5.30483,0 10.6047,0.0357 15.89654,-0.011 4.10706,-0.0368 4.86976,0.51376 3.46536,1.65541 -8.55455,0 -17.11762,0 -26.05769,0 0,-3.58761 0,-7.10525 0,-10.74961 8.50929,0 16.83192,0 25.6035,0 0.50412,2.7657 -6.37087,1.28339 -10.31277,1.68989 z"
   id="path3"
   style="stroke-width:0.71665" /><path
   fill="#797979"
   opacity="1"
   stroke="none"
   d="m 383.80456,107.85306 c -1.44575,0.47802 -2.8635,1.00623 -4.41241,1.04451 -4.68866,0.11596 -9.42814,0.0419 -14.58748,0.0419 0,0.94551 0,1.74962 0,2.61708 5.64862,0.15258 11.10905,0.28551 16.53839,0.49339 0.24785,0.009 0.21581,0.69396 0.36531,1.25659 -5.66303,0 -10.9638,0 -16.80142,0 0,1.04748 0,1.91331 0,3.00107 6.44696,0 12.81854,0 19.19012,0 0.42458,0.18603 0.8492,0.37208 1.27378,0.55809 -1.29489,0.40937 -2.53613,1.1527 -3.8935,1.17283 -7.69621,0.11424 -15.42017,0.0552 -23.43802,0.0552 0,-3.70773 0,-7.21741 0,-10.92894 8.19134,0 16.11504,-0.0108 24.03684,0.0222 0.57273,0.003 1.13122,0.32075 1.72839,0.66606 z"
   id="path4"
   style="stroke-width:0.71665" /><path
   fill="#7b7b7b"
   opacity="1"
   stroke="none"
   d="m 223.90176,117.82134 c -2.17331,0.18566 -4.05555,0.23848 -7.25006,0.32813 5.41073,-3.66479 10.23546,-7.06299 15.47276,-10.40143 1.59502,-1.01674 6.72416,-0.94482 8.362,0.10751 5.14467,3.3054 9.95749,6.65852 14.94929,10.0272 -4.47442,0.44189 -6.97947,0.24166 -8.80412,-1.03663 -0.81276,-0.5694 -3.922,-0.93068 -6.23079,-1.17721 -1.73516,-0.18528 -3.90775,0.0502 -5.79565,-0.0532 -5.73007,-0.31396 -8.97533,0.43877 -10.70343,2.20572 m 11.23571,-3.77967 c 2.22717,0 4.45432,0 7.86682,0 -2.51199,-1.754 -4.46074,-3.11472 -6.85799,-4.7886 -2.00084,1.4153 -3.40676,2.49866 -5.0509,3.54751 -1.6078,1.02569 -0.12024,1.28678 4.04207,1.24109 z"
   id="path5"
   style="stroke-width:0.71665" /><path
   fill="#7b7b7b"
   opacity="1"
   stroke="none"
   d="m 502.13175,117.65484 c -0.72228,-1.73904 -4.15319,-2.2018 -9.52549,-2.04729 -5.49409,0.15799 -11.95319,-0.57661 -13.98151,1.9778 -0.27133,0.34164 -3.78629,0.44541 -5.7992,0.65934 -0.40393,-0.13505 -0.8078,-0.27008 -1.21171,-0.40512 4.96994,-3.37848 9.78524,-6.77926 15.0052,-10.12168 1.53989,-0.98605 6.77283,-0.89578 8.37711,0.13708 4.89282,3.14968 9.48888,6.34236 14.02836,9.54085 0.18774,0.13224 -1.35775,0.4917 -2.99533,0.78785 -1.89882,-0.14788 -2.89814,-0.33832 -3.89743,-0.52875 m -7.95936,-6.01089 c -1.02661,-0.67847 -2.05324,-1.35692 -3.59342,-2.37476 -2.41852,1.71961 -4.38575,3.11829 -6.5038,4.62423 4.67172,0 8.54794,0 13.06657,0 -1.05752,-0.78929 -1.84831,-1.37953 -2.96935,-2.24947 z"
   id="path6"
   style="stroke-width:0.71665" /><path
   fill="#7a7879"
   opacity="1"
   stroke="none"
   d="m 297.17502,107.65654 c 6.06275,-0.15007 11.80777,-0.34806 17.47699,-0.22459 4.34424,0.0947 4.62369,0.93484 1.89759,1.86383 -5.93628,0.12409 -13.10318,-2.01994 -17.11933,1.05486 3.67589,0.62656 7.12179,1.23882 10.82142,1.62882 5.34061,0.56294 10.40143,1.09661 9.9086,3.25396 -0.37994,1.66322 -4.58165,2.84702 -11.76244,2.94287 -4.19848,0.056 -8.52725,-0.22756 -12.67131,-0.52217 -3.78833,-0.26933 -4.81439,-0.99768 -2.1587,-1.9452 4.63748,0.27138 9.15021,0.68413 13.70579,0.73376 2.00931,0.0219 4.10554,-0.69352 6.16233,-1.07419 -1.59588,-0.5168 -2.91949,-1.18177 -4.85991,-1.51108 -2.18601,-0.37098 -4.9606,-0.40804 -7.42182,-0.64529 -9.90682,-0.95501 -11.60309,-3.11949 -3.97921,-5.55558 z"
   id="path7"
   style="stroke-width:0.71665" /><path
   fill="#7a7a7a"
   opacity="1"
   stroke="none"
   d="m 457.58857,107.03546 c 4.4646,0.44731 8.37395,0.88697 12.72063,1.37582 -2.27027,1.2229 -3.51295,1.78161 -7.4842,1.05275 -5.95098,-1.09218 -12.53647,-0.67699 -16.42929,0.73546 -3.67296,1.33268 -3.80098,3.34938 -0.30139,4.74667 3.8804,1.54931 10.06992,1.82544 16.96901,0.92415 1.81275,-0.23683 4.24495,-0.0357 7.89072,-0.0357 -6.82053,2.47549 -16.40406,3.00044 -24.29611,1.79876 -7.56092,-1.15128 -11.42505,-3.7136 -9.51976,-6.31259 1.94884,-2.65842 8.99081,-4.17789 20.45039,-4.28529 z"
   id="path8"
   style="stroke-width:0.71665" /><path
   fill="#7c7c7c"
   opacity="1"
   stroke="none"
   d="m 393.04521,108.95644 c -4.49241,0.11986 -6.49386,-0.25988 -4.71631,-1.83105 8.86347,0 18.06994,-0.0468 27.2566,0.0615 1.10183,0.0125 2.09596,0.86872 3.88813,1.66714 -5.5632,0.0825 -9.13503,0.13536 -13.13997,0.19472 0,3.02874 0,5.90183 0,8.90994 -2.44027,0 -4.4155,0 -6.83365,0 0,-2.9245 0,-5.79599 0,-8.85336 -2.20498,-0.056 -4.03286,-0.10234 -6.4548,-0.14897 z"
   id="path9"
   style="stroke-width:0.71665" /><path
   fill="#7c7c7c"
   opacity="1"
   stroke="none"
   d="m 323.41465,108.98176 c -0.64984,-0.52048 -0.7152,-1.05335 -0.68152,-1.74366 8.54119,-0.14522 16.98552,-0.0939 25.42457,-0.13709 4.36131,-0.0222 5.34077,0.51284 3.78929,1.77548 -3.34491,0.048 -6.75159,0.097 -10.83281,0.15555 0,2.94959 0,5.87817 0,8.93351 -2.67363,0 -4.67175,0 -7.13491,0 0,-2.95426 0,-5.83751 0,-8.99625 -3.62837,0 -6.80427,0 -10.56462,0.0125 z"
   id="path10"
   style="stroke-width:0.71665" /><path
   fill="#7a7a7a"
   opacity="1"
   stroke="none"
   d="m 429.82902,117.08917 c -1.89797,0.51625 -3.78485,0.85775 -6.65741,1.37765 0,-4.05801 0,-7.52066 0,-11.20561 1.96024,-0.0438 3.94516,-0.0881 6.66843,-0.14898 0,3.39501 0,6.5986 -0.0107,9.97694 z"
   id="path11"
   style="stroke-width:0.71665" /><path
   fill="#c4c1c1"
   opacity="1"
   stroke="none"
   d="m 406.69683,126.60762 c 0.22185,-1.86982 -3.42035,-0.92581 -5.07971,-0.51676 -3.21601,0.79282 -5.60965,0.83829 -7.88793,-0.33333 1.15512,-0.37192 2.45303,-0.78982 3.75088,-1.20771 0.11429,0.16843 0.22843,0.33686 0.34265,0.5053 5.18752,-0.17567 10.37497,-0.35134 16.45385,-0.55719 0.16924,0.0823 1.02974,0.5012 2.01142,0.97902 -2.94425,0.4483 -5.4886,0.83575 -8.61036,1.24539 -0.57749,0.0222 -0.9808,-0.1147 -0.9808,-0.1147 z"
   id="path12"
   style="stroke-width:0.71665" /><path
   fill="#f5f0f0"
   opacity="1"
   stroke="none"
   d="m 502.10645,117.81174 c 1.02459,0.0335 2.02391,0.22398 3.47308,0.42944 -2.28599,1.26988 -5.02189,2.52471 -8.19333,3.97933 -3.86049,-1.65532 -2.06469,-2.30839 1.36713,-2.93122 1.45532,-0.26414 2.23889,-0.87007 3.35312,-1.47755 z"
   id="path13"
   style="stroke-width:0.71665" /><path
   fill="#828181"
   opacity="1"
   stroke="none"
   d="m 376.58012,105.29096 c -2.97663,0.47337 -5.6181,0.85969 -8.25956,1.24599 -0.44362,-0.26492 -0.88729,-0.52982 -1.33089,-0.79474 3.91384,-0.6624 7.82768,-1.32481 11.74154,-1.98724 0.43298,0.20967 0.86602,0.41933 1.29899,0.62898 -1.03831,0.27331 -2.07659,0.54662 -3.45008,0.90701 z"
   id="path14"
   style="stroke-width:0.71665" /><path
   fill="#434242"
   opacity="1"
   stroke="none"
   d="m 323.43243,123.64217 c -0.67577,-0.0856 -0.75935,-0.18574 -0.71745,-0.43608 15.08299,-0.15023 30.04041,-0.15023 44.99788,-0.15023 -10e-4,0.19061 -0.004,0.38123 -0.005,0.57185 -14.56105,0 -29.12211,0 -44.27526,0.0141 z"
   id="path15"
   style="stroke-width:0.71665" /><path
   fill="#c7c4c4"
   opacity="1"
   stroke="none"
   d="m 500.14283,125.8718 c 1.67305,-0.7408 3.75187,-1.43064 5.83065,-2.12047 1.76554,0.57151 3.53108,1.14302 5.2966,1.71452 -0.51269,0.13506 -1.02543,0.26998 -1.53812,0.40495 -0.75581,-0.31309 -1.51157,-0.62619 -2.34252,-0.97041 -2.28988,0.34222 -4.56535,0.6823 -7.24661,0.97141 z"
   id="path16"
   style="stroke-width:0.71665" /><path
   fill="#f5f0f0"
   opacity="1"
   stroke="none"
   d="m 491.2809,123.25611 c -1.73325,0.33091 -3.13723,0.60043 -5.99357,1.14876 1.01976,-0.86606 1.58478,-1.34593 2.1498,-1.82581 1.39101,0.20521 2.78207,0.41045 3.84377,0.67705 z"
   id="path17"
   style="stroke-width:0.71665" /><path
   fill="#c4c1c1"
   opacity="1"
   stroke="none"
   d="m 525.85589,124.95566 c 1.49204,0.30989 2.98411,0.6198 4.47616,0.92969 0.004,0.0905 0.008,0.18102 0.013,0.27152 -2.55209,-0.20702 -5.1042,-0.41406 -7.65631,-0.6211 0.60894,-0.24553 1.21791,-0.49105 2.368,-0.71104 0.54113,0.0255 0.79964,0.13097 0.79964,0.13097 z"
   id="path18"
   style="stroke-width:0.71665" /><path
   fill="#c7c4c4"
   opacity="1"
   stroke="none"
   d="m 494.42555,124.8439 c 0.3098,0.37184 0.61964,0.74367 1.01534,1.21856 -1.63043,-0.12942 -3.41933,-0.27152 -6.20651,-0.49285 1.83896,-0.37485 2.90969,-0.59311 4.49137,-0.79591 0.51091,0.0156 0.6998,0.0703 0.6998,0.0703 z"
   id="path19"
   style="stroke-width:0.71665" /><path
   fill="#c4c1c1"
   opacity="1"
   stroke="none"
   d="m 407.30915,126.81092 c -0.68655,0.39495 -1.58208,0.72348 -2.47758,1.05201 -0.36855,-0.0911 -0.73713,-0.18203 -1.10568,-0.27304 0.75315,-0.29412 1.50634,-0.58825 2.61525,-0.93232 0.35569,-0.0499 0.759,0.087 0.96801,0.15335 z"
   id="path20"
   style="stroke-width:0.71665" /><path
   fill="#c4c1c1"
   opacity="1"
   stroke="none"
   d="m 525.46157,124.79911 c 1.01191,-0.15492 2.15961,-0.25877 3.30724,-0.36258 0.0865,0.13489 0.17315,0.26983 0.25971,0.40472 -0.82789,0.021 -1.65574,0.0421 -2.82815,0.0887 -0.34448,0.0257 -0.60299,-0.0798 -0.7388,-0.13083 z"
   id="path21"
   style="stroke-width:0.71665" /><path
   fill="#c4c1c1"
   opacity="1"
   stroke="none"
   d="m 517.708,125.98546 c -0.75388,-0.0906 -1.11605,-0.18106 -1.4782,-0.27149 0.97566,10e-4 1.95133,0.003 2.927,0.005 -0.35233,0.0892 -0.7047,0.17839 -1.4488,0.26736 z"
   id="path22"
   style="stroke-width:0.71665" /><path
   fill="#f5f0f0"
   opacity="1"
   stroke="none"
   d="m 491.33745,121.38888 c 0.32867,0.006 0.50817,0.0595 0.68765,0.11329 -0.27894,-0.0218 -0.55789,-0.0435 -0.68765,-0.11329 z"
   id="path23"
   style="stroke-width:0.71665" /><path
   fill="#c7c4c4"
   opacity="1"
   stroke="none"
   d="m 494.14723,124.76024 c 0.16424,-0.0182 0.41783,-0.008 0.47489,0.0437 -0.19657,0.0401 -0.38546,-0.0141 -0.47489,-0.0437 z"
   id="path24"
   style="stroke-width:0.71665" /><path
   fill="#c4c1c1"
   opacity="1"
   stroke="none"
   d="m 517.41207,124.72856 c 0.24303,-0.0656 0.48607,-0.13113 0.72907,-0.19671 0.0383,0.0799 0.0765,0.15997 -0.20196,0.24965 -0.31688,0.009 -0.52711,-0.0529 -0.52711,-0.0529 z"
   id="path25"
   style="stroke-width:0.71665" /><path
   fill="#c4c1c1"
   opacity="1"
   stroke="none"
   d="m 517.72433,124.82341 c -0.17507,0.1147 -0.45219,0.19729 -0.72934,0.2798 -0.0401,-0.0958 -0.0801,-0.1916 0.14845,-0.33103 0.26863,-0.0437 0.47886,0.0189 0.58089,0.0512 z"
   id="path26"
   style="stroke-width:0.71665" /><path
   fill="#c4c1c1"
   opacity="1"
   stroke="none"
   d="m 513.04351,125.42373 c -0.10977,-0.039 0.29416,-0.0507 0.29416,-0.0507 0,0 -0.18447,0.0895 -0.29416,0.0507 z"
   id="path27"
   style="stroke-width:0.71665" /><path
   fill="#f2eded"
   opacity="1"
   stroke="none"
   d="m 234.59311,114.04116 c -3.61797,0.0462 -5.10551,-0.21489 -3.49771,-1.24057 1.64414,-1.04885 3.05006,-2.13221 5.0509,-3.54752 2.39725,1.67388 4.346,3.0346 6.85799,4.78861 -3.4125,0 -5.63965,0 -8.41118,-4.1e-4 z"
   id="path28"
   style="stroke-width:0.71665" /><path
   fill="#eee9e9"
   opacity="1"
   stroke="none"
   d="m 494.33751,111.7838 c 0.95592,0.73009 1.74671,1.32033 2.80423,2.10962 -4.51863,0 -8.39485,0 -13.06657,0 2.11805,-1.50594 4.08528,-2.90462 6.5038,-4.62423 1.54018,1.01784 2.56681,1.69629 3.75854,2.51461 z"
   id="path29"
   style="stroke-width:0.71665" /></svg>
